<svg xmlns="http://www.w3.org/2000/svg" width="26" height="26" viewBox="0 0 26 26" shape-rendering="crispEdges" style="image-rendering:pixelated">
<rect x="12" y="0" width="2" height="2" fill="black"/><rect x="12" y="2" width="2" height="2" fill="black"/><rect x="12" y="4" width="2" height="2" fill="black"/><rect x="12" y="6" width="2" height="2" fill="black"/><rect x="12" y="8" width="2" height="2" fill="black"/><rect x="0" y="12" width="2" height="2" fill="black"/><rect x="2" y="12" width="2" height="2" fill="black"/><rect x="4" y="12" width="2" height="2" fill="black"/><rect x="6" y="12" width="2" height="2" fill="black"/><rect x="8" y="12" width="2" height="2" fill="black"/><rect x="16" y="12" width="2" height="2" fill="black"/><rect x="18" y="12" width="2" height="2" fill="black"/><rect x="20" y="12" width="2" height="2" fill="black"/><rect x="22" y="12" width="2" height="2" fill="black"/><rect x="24" y="12" width="2" height="2" fill="black"/><rect x="12" y="16" width="2" height="2" fill="black"/><rect x="12" y="18" width="2" height="2" fill="black"/><rect x="12" y="20" width="2" height="2" fill="black"/><rect x="12" y="22" width="2" height="2" fill="black"/><rect x="12" y="24" width="2" height="2" fill="black"/>
</svg>