<svg xmlns="http://www.w3.org/2000/svg" width="30" height="30" viewBox="0 0 30 30" shape-rendering="crispEdges">
<rect x="14" y="0" width="2" height="2" fill="black"/><rect x="14" y="2" width="2" height="2" fill="black"/><rect x="14" y="4" width="2" height="2" fill="black"/><rect x="14" y="6" width="2" height="2" fill="black"/><rect x="14" y="8" width="2" height="2" fill="black"/><rect x="14" y="10" width="2" height="2" fill="black"/><rect x="0" y="14" width="2" height="2" fill="black"/><rect x="2" y="14" width="2" height="2" fill="black"/><rect x="4" y="14" width="2" height="2" fill="black"/><rect x="6" y="14" width="2" height="2" fill="black"/><rect x="8" y="14" width="2" height="2" fill="black"/><rect x="10" y="14" width="2" height="2" fill="black"/><rect x="18" y="14" width="2" height="2" fill="black"/><rect x="20" y="14" width="2" height="2" fill="black"/><rect x="22" y="14" width="2" height="2" fill="black"/><rect x="24" y="14" width="2" height="2" fill="black"/><rect x="26" y="14" width="2" height="2" fill="black"/><rect x="28" y="14" width="2" height="2" fill="black"/><rect x="14" y="18" width="2" height="2" fill="black"/><rect x="14" y="20" width="2" height="2" fill="black"/><rect x="14" y="22" width="2" height="2" fill="black"/><rect x="14" y="24" width="2" height="2" fill="black"/><rect x="14" y="26" width="2" height="2" fill="black"/><rect x="14" y="28" width="2" height="2" fill="black"/>
</svg>