<svg xmlns="http://www.w3.org/2000/svg" width="32" height="32" viewBox="0 0 32 32" shape-rendering="crispEdges">
<rect x="6" y="8" width="2" height="2" fill="black"/><rect x="22" y="8" width="2" height="2" fill="black"/><rect x="4" y="10" width="2" height="2" fill="black"/><rect x="6" y="10" width="2" height="2" fill="white"/><rect x="8" y="10" width="2" height="2" fill="black"/><rect x="20" y="10" width="2" height="2" fill="black"/><rect x="22" y="10" width="2" height="2" fill="white"/><rect x="24" y="10" width="2" height="2" fill="black"/><rect x="2" y="12" width="2" height="2" fill="black"/><rect x="4" y="12" width="2" height="2" fill="white"/><rect x="6" y="12" width="2" height="2" fill="white"/><rect x="8" y="12" width="2" height="2" fill="white"/><rect x="10" y="12" width="2" height="2" fill="black"/><rect x="12" y="12" width="2" height="2" fill="black"/><rect x="14" y="12" width="2" height="2" fill="black"/><rect x="16" y="12" width="2" height="2" fill="black"/><rect x="18" y="12" width="2" height="2" fill="black"/><rect x="20" y="12" width="2" height="2" fill="white"/><rect x="22" y="12" width="2" height="2" fill="white"/><rect x="24" y="12" width="2" height="2" fill="white"/><rect x="26" y="12" width="2" height="2" fill="black"/><rect x="0" y="14" width="2" height="2" fill="black"/><rect x="2" y="14" width="2" height="2" fill="white"/><rect x="4" y="14" width="2" height="2" fill="white"/><rect x="6" y="14" width="2" height="2" fill="white"/><rect x="8" y="14" width="2" height="2" fill="white"/><rect x="10" y="14" width="2" height="2" fill="white"/><rect x="12" y="14" width="2" height="2" fill="white"/><rect x="14" y="14" width="2" height="2" fill="white"/><rect x="16" y="14" width="2" height="2" fill="white"/><rect x="18" y="14" width="2" height="2" fill="white"/><rect x="20" y="14" width="2" height="2" fill="white"/><rect x="22" y="14" width="2" height="2" fill="white"/><rect x="24" y="14" width="2" height="2" fill="white"/><rect x="26" y="14" width="2" height="2" fill="white"/><rect x="28" y="14" width="2" height="2" fill="black"/><rect x="2" y="16" width="2" height="2" fill="black"/><rect x="4" y="16" width="2" height="2" fill="white"/><rect x="6" y="16" width="2" height="2" fill="white"/><rect x="8" y="16" width="2" height="2" fill="white"/><rect x="10" y="16" width="2" height="2" fill="black"/><rect x="12" y="16" width="2" height="2" fill="black"/><rect x="14" y="16" width="2" height="2" fill="black"/><rect x="16" y="16" width="2" height="2" fill="black"/><rect x="18" y="16" width="2" height="2" fill="black"/><rect x="20" y="16" width="2" height="2" fill="white"/><rect x="22" y="16" width="2" height="2" fill="white"/><rect x="24" y="16" width="2" height="2" fill="white"/><rect x="26" y="16" width="2" height="2" fill="black"/><rect x="4" y="18" width="2" height="2" fill="black"/><rect x="6" y="18" width="2" height="2" fill="white"/><rect x="8" y="18" width="2" height="2" fill="black"/><rect x="20" y="18" width="2" height="2" fill="black"/><rect x="22" y="18" width="2" height="2" fill="white"/><rect x="24" y="18" width="2" height="2" fill="black"/><rect x="6" y="20" width="2" height="2" fill="black"/><rect x="22" y="20" width="2" height="2" fill="black"/>
</svg>