<svg xmlns="http://www.w3.org/2000/svg" width="32" height="32" viewBox="0 0 32 32" shape-rendering="crispEdges">
<rect x="6" y="2" width="2" height="2" fill="black"/><rect x="8" y="2" width="2" height="2" fill="black"/><rect x="10" y="2" width="2" height="2" fill="black"/><rect x="14" y="2" width="2" height="2" fill="black"/><rect x="16" y="2" width="2" height="2" fill="black"/><rect x="18" y="2" width="2" height="2" fill="black"/><rect x="8" y="4" width="2" height="2" fill="black"/><rect x="10" y="4" width="2" height="2" fill="white"/><rect x="12" y="4" width="2" height="2" fill="black"/><rect x="14" y="4" width="2" height="2" fill="white"/><rect x="16" y="4" width="2" height="2" fill="black"/><rect x="10" y="6" width="2" height="2" fill="black"/><rect x="12" y="6" width="2" height="2" fill="white"/><rect x="14" y="6" width="2" height="2" fill="black"/><rect x="10" y="8" width="2" height="2" fill="black"/><rect x="12" y="8" width="2" height="2" fill="white"/><rect x="14" y="8" width="2" height="2" fill="black"/><rect x="10" y="10" width="2" height="2" fill="black"/><rect x="12" y="10" width="2" height="2" fill="white"/><rect x="14" y="10" width="2" height="2" fill="black"/><rect x="10" y="12" width="2" height="2" fill="black"/><rect x="12" y="12" width="2" height="2" fill="white"/><rect x="14" y="12" width="2" height="2" fill="black"/><rect x="10" y="14" width="2" height="2" fill="black"/><rect x="12" y="14" width="2" height="2" fill="white"/><rect x="14" y="14" width="2" height="2" fill="black"/><rect x="10" y="16" width="2" height="2" fill="black"/><rect x="12" y="16" width="2" height="2" fill="white"/><rect x="14" y="16" width="2" height="2" fill="black"/><rect x="10" y="18" width="2" height="2" fill="black"/><rect x="12" y="18" width="2" height="2" fill="white"/><rect x="14" y="18" width="2" height="2" fill="black"/><rect x="10" y="20" width="2" height="2" fill="black"/><rect x="12" y="20" width="2" height="2" fill="white"/><rect x="14" y="20" width="2" height="2" fill="black"/><rect x="10" y="22" width="2" height="2" fill="black"/><rect x="12" y="22" width="2" height="2" fill="white"/><rect x="14" y="22" width="2" height="2" fill="black"/><rect x="10" y="24" width="2" height="2" fill="black"/><rect x="12" y="24" width="2" height="2" fill="white"/><rect x="14" y="24" width="2" height="2" fill="black"/><rect x="10" y="26" width="2" height="2" fill="black"/><rect x="12" y="26" width="2" height="2" fill="white"/><rect x="14" y="26" width="2" height="2" fill="black"/><rect x="6" y="28" width="2" height="2" fill="black"/><rect x="8" y="28" width="2" height="2" fill="black"/><rect x="10" y="28" width="2" height="2" fill="black"/><rect x="12" y="28" width="2" height="2" fill="white"/><rect x="14" y="28" width="2" height="2" fill="black"/><rect x="16" y="28" width="2" height="2" fill="black"/><rect x="18" y="28" width="2" height="2" fill="black"/>
</svg>