<svg xmlns="http://www.w3.org/2000/svg" width="18" height="36" viewBox="0 0 18 36" shape-rendering="crispEdges">
<rect x="2" y="0" width="2" height="2" fill="black"/><rect x="4" y="0" width="2" height="2" fill="black"/><rect x="6" y="0" width="2" height="2" fill="black"/><rect x="10" y="0" width="2" height="2" fill="black"/><rect x="12" y="0" width="2" height="2" fill="black"/><rect x="14" y="0" width="2" height="2" fill="black"/><rect x="6" y="2" width="2" height="2" fill="black"/><rect x="8" y="2" width="2" height="2" fill="white"/><rect x="10" y="2" width="2" height="2" fill="black"/><rect x="6" y="4" width="2" height="2" fill="black"/><rect x="8" y="4" width="2" height="2" fill="white"/><rect x="10" y="4" width="2" height="2" fill="black"/><rect x="6" y="6" width="2" height="2" fill="black"/><rect x="8" y="6" width="2" height="2" fill="white"/><rect x="10" y="6" width="2" height="2" fill="black"/><rect x="6" y="8" width="2" height="2" fill="black"/><rect x="8" y="8" width="2" height="2" fill="white"/><rect x="10" y="8" width="2" height="2" fill="black"/><rect x="6" y="10" width="2" height="2" fill="black"/><rect x="8" y="10" width="2" height="2" fill="white"/><rect x="10" y="10" width="2" height="2" fill="black"/><rect x="6" y="12" width="2" height="2" fill="black"/><rect x="8" y="12" width="2" height="2" fill="white"/><rect x="10" y="12" width="2" height="2" fill="black"/><rect x="6" y="14" width="2" height="2" fill="black"/><rect x="8" y="14" width="2" height="2" fill="white"/><rect x="10" y="14" width="2" height="2" fill="black"/><rect x="6" y="16" width="2" height="2" fill="black"/><rect x="8" y="16" width="2" height="2" fill="white"/><rect x="10" y="16" width="2" height="2" fill="black"/><rect x="6" y="18" width="2" height="2" fill="black"/><rect x="8" y="18" width="2" height="2" fill="white"/><rect x="10" y="18" width="2" height="2" fill="black"/><rect x="6" y="20" width="2" height="2" fill="black"/><rect x="8" y="20" width="2" height="2" fill="white"/><rect x="10" y="20" width="2" height="2" fill="black"/><rect x="6" y="22" width="2" height="2" fill="black"/><rect x="8" y="22" width="2" height="2" fill="white"/><rect x="10" y="22" width="2" height="2" fill="black"/><rect x="6" y="24" width="2" height="2" fill="black"/><rect x="8" y="24" width="2" height="2" fill="white"/><rect x="10" y="24" width="2" height="2" fill="black"/><rect x="6" y="26" width="2" height="2" fill="black"/><rect x="8" y="26" width="2" height="2" fill="white"/><rect x="10" y="26" width="2" height="2" fill="black"/><rect x="6" y="28" width="2" height="2" fill="black"/><rect x="8" y="28" width="2" height="2" fill="white"/><rect x="10" y="28" width="2" height="2" fill="black"/><rect x="6" y="30" width="2" height="2" fill="black"/><rect x="8" y="30" width="2" height="2" fill="white"/><rect x="10" y="30" width="2" height="2" fill="black"/><rect x="6" y="32" width="2" height="2" fill="black"/><rect x="8" y="32" width="2" height="2" fill="white"/><rect x="10" y="32" width="2" height="2" fill="black"/><rect x="2" y="34" width="2" height="2" fill="black"/><rect x="4" y="34" width="2" height="2" fill="black"/><rect x="6" y="34" width="2" height="2" fill="black"/><rect x="10" y="34" width="2" height="2" fill="black"/><rect x="12" y="34" width="2" height="2" fill="black"/><rect x="14" y="34" width="2" height="2" fill="black"/>
</svg>