<svg width="616" height="988" viewBox="0 0 616 988" fill="none" xmlns="http://www.w3.org/2000/svg">
<path d="M167.418 0L137.418 111.455H127.6L157.6 0H167.418Z" fill="black"/>
<path d="M203.225 111.455L173.225 0H183.043L213.043 111.455H203.225Z" fill="black"/>
<path d="M273.941 97.4546V107.455H215.759V97.4546H273.941Z" fill="black"/>
<path d="M316.543 0L286.543 111.455H276.725L306.725 0H316.543Z" fill="black"/>
<path d="M352.35 111.455L322.35 0H332.168L362.168 111.455H352.35Z" fill="black"/>
<path d="M418.702 98.1818C416.46 98.1818 414.536 97.3788 412.93 95.7727C411.324 94.1667 410.52 92.2424 410.52 90C410.52 87.7576 411.324 85.8333 412.93 84.2273C414.536 82.6212 416.46 81.8182 418.702 81.8182C420.945 81.8182 422.869 82.6212 424.475 84.2273C426.081 85.8333 426.884 87.7576 426.884 90C426.884 91.4849 426.505 92.8485 425.748 94.0909C425.02 95.3333 424.036 96.3333 422.793 97.0909C421.581 97.8182 420.217 98.1818 418.702 98.1818Z" fill="black"/>
<path d="M453.952 98.1818C451.71 98.1818 449.786 97.3788 448.18 95.7727C446.574 94.1667 445.77 92.2424 445.77 90C445.77 87.7576 446.574 85.8333 448.18 84.2273C449.786 82.6212 451.71 81.8182 453.952 81.8182C456.195 81.8182 458.119 82.6212 459.725 84.2273C461.331 85.8333 462.134 87.7576 462.134 90C462.134 91.4849 461.755 92.8485 460.998 94.0909C460.27 95.3333 459.286 96.3333 458.043 97.0909C456.831 97.8182 455.467 98.1818 453.952 98.1818Z" fill="black"/>
<path d="M537.02 98.9091L490.293 52.1818C486.566 48.4546 484.081 44.1212 482.839 39.1818C481.627 34.2424 481.642 29.3333 482.884 24.4546C484.127 19.5455 486.596 15.2727 490.293 11.6364C494.081 7.90909 498.399 5.4394 503.248 4.22728C508.127 2.98485 512.99 2.98485 517.839 4.22728C522.717 5.4697 527.051 7.9394 530.839 11.6364L537.02 17.6364L543.202 11.6364C547.02 7.9394 551.354 5.4697 556.202 4.22728C561.051 2.98485 565.899 2.98485 570.748 4.22728C575.627 5.4394 579.96 7.90909 583.748 11.6364C587.445 15.2727 589.914 19.5455 591.157 24.4546C592.399 29.3333 592.399 34.2424 591.157 39.1818C589.945 44.1212 587.475 48.4546 583.748 52.1818L537.02 98.9091ZM537.02 84.7727L576.657 45.0909C579.081 42.697 580.687 39.8939 581.475 36.6818C582.293 33.4697 582.308 30.2727 581.52 27.0909C580.733 23.8788 579.142 21.1061 576.748 18.7727C574.263 16.3182 571.43 14.697 568.248 13.9091C565.096 13.0909 561.93 13.0909 558.748 13.9091C555.566 14.7273 552.702 16.3636 550.157 18.8182L537.02 31.5909L523.884 18.8182C521.369 16.3636 518.505 14.7273 515.293 13.9091C512.111 13.0909 508.93 13.0909 505.748 13.9091C502.596 14.697 499.778 16.3182 497.293 18.7727C494.899 21.1061 493.308 23.8788 492.52 27.0909C491.733 30.2727 491.748 33.4697 492.566 36.6818C493.384 39.8939 494.99 42.697 497.384 45.0909L537.02 84.7727Z" fill="black"/>
<path d="M58.5455 210.727L0 240.545V228.909L44.9091 207.273L44.5455 208V206.182L44.9091 206.909L0 185.273V173.636L58.5455 203.455V210.727Z" fill="black"/>
<path d="M85.1023 204.182C85.1023 192.727 86.5871 182.197 89.5568 172.591C92.5568 162.955 96.8295 154.091 102.375 146H111.83C109.648 149 107.602 152.697 105.693 157.091C103.814 161.455 102.163 166.258 100.739 171.5C99.3144 176.712 98.1932 182.106 97.375 187.682C96.5871 193.258 96.1932 198.758 96.1932 204.182C96.1932 211.394 96.8901 218.712 98.2841 226.136C99.678 233.561 101.557 240.455 103.92 246.818C106.284 253.182 108.92 258.364 111.83 262.364H102.375C96.8295 254.273 92.5568 245.424 89.5568 235.818C86.5871 226.182 85.1023 215.636 85.1023 204.182Z" fill="black"/>
<path d="M153.841 226.364C150.174 226.364 146.826 225.47 143.795 223.682C140.765 221.864 138.341 219.439 136.523 216.409C134.735 213.379 133.841 210.03 133.841 206.364C133.841 202.667 134.735 199.318 136.523 196.318C138.341 193.288 140.765 190.879 143.795 189.091C146.826 187.273 150.174 186.364 153.841 186.364C157.538 186.364 160.886 187.273 163.886 189.091C166.917 190.879 169.326 193.288 171.114 196.318C172.932 199.318 173.841 202.667 173.841 206.364C173.841 210.03 172.932 213.379 171.114 216.409C169.326 219.439 166.917 221.864 163.886 223.682C160.886 225.47 157.538 226.364 153.841 226.364Z" fill="black"/>
<path d="M297.841 226.364C294.174 226.364 290.826 225.47 287.795 223.682C284.765 221.864 282.341 219.439 280.523 216.409C278.735 213.379 277.841 210.03 277.841 206.364C277.841 202.667 278.735 199.318 280.523 196.318C282.341 193.288 284.765 190.879 287.795 189.091C290.826 187.273 294.174 186.364 297.841 186.364C301.538 186.364 304.886 187.273 307.886 189.091C310.917 190.879 313.326 193.288 315.114 196.318C316.932 199.318 317.841 202.667 317.841 206.364C317.841 210.03 316.932 213.379 315.114 216.409C313.326 219.439 310.917 221.864 307.886 223.682C304.886 225.47 301.538 226.364 297.841 226.364Z" fill="black"/>
<path d="M402.568 204.182C402.568 215.636 401.068 226.182 398.068 235.818C395.098 245.424 390.841 254.273 385.295 262.364H375.841C378.023 259.364 380.053 255.667 381.932 251.273C383.841 246.909 385.508 242.121 386.932 236.909C388.356 231.667 389.462 226.258 390.25 220.682C391.068 215.076 391.477 209.576 391.477 204.182C391.477 196.97 390.78 189.652 389.386 182.227C387.992 174.803 386.114 167.909 383.75 161.545C381.386 155.182 378.75 150 375.841 146H385.295C390.841 154.091 395.098 162.955 398.068 172.591C401.068 182.197 402.568 192.727 402.568 204.182Z" fill="black"/>
<path d="M429.125 210.727V203.455L487.67 173.636V185.273L442.761 206.909L443.125 206.182V208L442.761 207.273L487.67 228.909V240.545L429.125 210.727Z" fill="black"/>
<path d="M120.545 266.364V419.455H111.455V266.364H120.545Z" fill="black"/>
<path d="M441.235 403.455L411.235 292H421.053L451.053 403.455H441.235Z" fill="black"/>
<path d="M120.545 412.364V565.455H111.455V412.364H120.545Z" fill="black"/>
<path d="M234.42 412.364V565.455H225.33V412.364H234.42Z" fill="black"/>
<path d="M348.295 412.364V565.455H339.205V412.364H348.295Z" fill="black"/>
<path d="M495.203 496.182C495.203 507.636 493.703 518.182 490.703 527.818C487.733 537.424 483.476 546.273 477.93 554.364H468.476C470.658 551.364 472.688 547.667 474.567 543.273C476.476 538.909 478.143 534.121 479.567 528.909C480.991 523.667 482.097 518.258 482.885 512.682C483.703 507.076 484.112 501.576 484.112 496.182C484.112 488.97 483.415 481.652 482.021 474.227C480.627 466.803 478.749 459.909 476.385 453.545C474.021 447.182 471.385 442 468.476 438H477.93C483.476 446.091 487.733 454.955 490.703 464.591C493.703 474.197 495.203 484.727 495.203 496.182Z" fill="black"/>
<path d="M566.851 535.455V545.455H508.669V535.455H566.851Z" fill="black"/>
<path d="M106.364 681.455V588.364H117.636V671.455H160.909V681.455H106.364Z" fill="black"/>
<path d="M206.034 629.909V639.909H165.307V629.909H206.034Z" fill="black"/>
<path d="M264.909 629.909V639.909H224.182V629.909H264.909Z" fill="black"/>
<path d="M285.239 681.455V588.364H296.511V671.455H339.784V681.455H285.239Z" fill="black"/>
<path d="M384.909 629.909V639.909H344.182V629.909H384.909Z" fill="black"/>
<path d="M443.784 629.909V639.909H403.057V629.909H443.784Z" fill="black"/>
<path d="M531.568 584L501.568 695.455H491.75L521.75 584H531.568Z" fill="black"/>
<path d="M613.193 584L583.193 695.455H573.375L603.375 584H613.193Z" fill="black"/>
<path d="M524 841.455L494 730H503.818L533.818 841.455H524Z" fill="black"/>
<path d="M605.625 841.455L575.625 730H585.443L615.443 841.455H605.625Z" fill="black"/>
<path d="M560 987.455L530 876H539.818L569.818 987.455H560Z" fill="black"/>
<path d="M615.443 876L585.443 987.455H575.625L605.625 876H615.443Z" fill="black"/>
</svg>
