<svg width="642" height="642" viewBox="0 0 642 642" fill="none" xmlns="http://www.w3.org/2000/svg">
<path d="M0 124C0 55.5167 55.5167 0 124 0H518C586.483 0 642 55.5167 642 124V518C642 586.483 586.483 642 518 642H124C55.5167 642 0 586.483 0 518V124Z" fill="white"/>
<path d="M177.501 459L74.5156 74.9985H145.834L212.628 364.796H213.959L290.866 74.9985H353.136L430.043 364.796H431.374L498.168 74.9985H569.22L466.5 459H400.238L322.799 183.307H321.203L243.764 459H177.501Z" fill="black"/>
<path d="M184 534C184 566.585 157.585 593 125 593C92.4152 593 66 566.585 66 534C66 501.415 92.4152 475 125 475C157.585 475 184 501.415 184 534Z" fill="#FF2D2D"/>
<path d="M313 534C313 566.585 286.585 593 254 593C221.415 593 195 566.585 195 534C195 501.415 221.415 475 254 475C286.585 475 313 501.415 313 534Z" fill="#FF2D2D"/>
<path d="M313 534C313 566.585 286.585 593 254 593C221.415 593 195 566.585 195 534C195 501.415 221.415 475 254 475C286.585 475 313 501.415 313 534Z" fill="#FF2D2D"/>
<path d="M442 534C442 566.585 415.585 593 383 593C350.415 593 324 566.585 324 534C324 501.415 350.415 475 383 475C415.585 475 442 501.415 442 534Z" fill="#FF2D2D"/>
<path d="M442 534C442 566.585 415.585 593 383 593C350.415 593 324 566.585 324 534C324 501.415 350.415 475 383 475C415.585 475 442 501.415 442 534Z" fill="#FF2D2D"/>
<path d="M571 534C571 566.585 544.585 593 512 593C479.415 593 453 566.585 453 534C453 501.415 479.415 475 512 475C544.585 475 571 501.415 571 534Z" fill="#FF2D2D"/>
<path d="M571 534C571 566.585 544.585 593 512 593C479.415 593 453 566.585 453 534C453 501.415 479.415 475 512 475C544.585 475 571 501.415 571 534Z" fill="#FF2D2D"/>
<path d="M571 534C571 566.585 544.585 593 512 593C479.415 593 453 566.585 453 534C453 501.415 479.415 475 512 475C544.585 475 571 501.415 571 534Z" fill="#FF2D2D"/>
</svg>
