<svg width="5846" height="414" viewBox="0 0 5846 414" fill="none" xmlns="http://www.w3.org/2000/svg">
<path d="M8.18182 407.919C5.93939 407.919 4.01515 407.116 2.40909 405.51C0.80303 403.904 0 401.98 0 399.737C0 397.495 0.80303 395.571 2.40909 393.965C4.01515 392.359 5.93939 391.556 8.18182 391.556C10.4242 391.556 12.3485 392.359 13.9545 393.965C15.5606 395.571 16.3636 397.495 16.3636 399.737C16.3636 401.222 15.9848 402.586 15.2273 403.828C14.5 405.071 13.5152 406.071 12.2727 406.828C11.0606 407.556 9.69697 407.919 8.18182 407.919Z" fill="black"/>
<path d="M43.4318 407.919C41.1894 407.919 39.2652 407.116 37.6591 405.51C36.053 403.904 35.25 401.98 35.25 399.737C35.25 397.495 36.053 395.571 37.6591 393.965C39.2652 392.359 41.1894 391.556 43.4318 391.556C45.6742 391.556 47.5985 392.359 49.2045 393.965C50.8106 395.571 51.6136 397.495 51.6136 399.737C51.6136 401.222 51.2348 402.586 50.4773 403.828C49.75 405.071 48.7652 406.071 47.5227 406.828C46.3106 407.556 44.947 407.919 43.4318 407.919Z" fill="black"/>
<path d="M78.6818 407.919C76.4394 407.919 74.5151 407.116 72.9091 405.51C71.303 403.904 70.5 401.98 70.5 399.737C70.5 397.495 71.303 395.571 72.9091 393.965C74.5151 392.359 76.4394 391.556 78.6818 391.556C80.9242 391.556 82.8485 392.359 84.4545 393.965C86.0606 395.571 86.8636 397.495 86.8636 399.737C86.8636 401.222 86.4848 402.586 85.7273 403.828C85 405.071 84.0152 406.071 82.7727 406.828C81.5606 407.556 80.197 407.919 78.6818 407.919Z" fill="black"/>
<path d="M113.932 407.919C111.689 407.919 109.765 407.116 108.159 405.51C106.553 403.904 105.75 401.98 105.75 399.737C105.75 397.495 106.553 395.571 108.159 393.965C109.765 392.359 111.689 391.556 113.932 391.556C116.174 391.556 118.098 392.359 119.705 393.965C121.311 395.571 122.114 397.495 122.114 399.737C122.114 401.222 121.735 402.586 120.977 403.828C120.25 405.071 119.265 406.071 118.023 406.828C116.811 407.556 115.447 407.919 113.932 407.919Z" fill="black"/>
<path d="M149.182 407.919C146.939 407.919 145.015 407.116 143.409 405.51C141.803 403.904 141 401.98 141 399.737C141 397.495 141.803 395.571 143.409 393.965C145.015 392.359 146.939 391.556 149.182 391.556C151.424 391.556 153.348 392.359 154.955 393.965C156.561 395.571 157.364 397.495 157.364 399.737C157.364 401.222 156.985 402.586 156.227 403.828C155.5 405.071 154.515 406.071 153.273 406.828C152.061 407.556 150.697 407.919 149.182 407.919Z" fill="black"/>
<path d="M184.432 407.919C182.189 407.919 180.265 407.116 178.659 405.51C177.053 403.904 176.25 401.98 176.25 399.737C176.25 397.495 177.053 395.571 178.659 393.965C180.265 392.359 182.189 391.556 184.432 391.556C186.674 391.556 188.598 392.359 190.205 393.965C191.811 395.571 192.614 397.495 192.614 399.737C192.614 401.222 192.235 402.586 191.477 403.828C190.75 405.071 189.765 406.071 188.523 406.828C187.311 407.556 185.947 407.919 184.432 407.919Z" fill="black"/>
<path d="M219.682 407.919C217.439 407.919 215.515 407.116 213.909 405.51C212.303 403.904 211.5 401.98 211.5 399.737C211.5 397.495 212.303 395.571 213.909 393.965C215.515 392.359 217.439 391.556 219.682 391.556C221.924 391.556 223.848 392.359 225.455 393.965C227.061 395.571 227.864 397.495 227.864 399.737C227.864 401.222 227.485 402.586 226.727 403.828C226 405.071 225.015 406.071 223.773 406.828C222.561 407.556 221.197 407.919 219.682 407.919Z" fill="black"/>
<path d="M254.932 407.919C252.689 407.919 250.765 407.116 249.159 405.51C247.553 403.904 246.75 401.98 246.75 399.737C246.75 397.495 247.553 395.571 249.159 393.965C250.765 392.359 252.689 391.556 254.932 391.556C257.174 391.556 259.098 392.359 260.705 393.965C262.311 395.571 263.114 397.495 263.114 399.737C263.114 401.222 262.735 402.586 261.977 403.828C261.25 405.071 260.265 406.071 259.023 406.828C257.811 407.556 256.447 407.919 254.932 407.919Z" fill="black"/>
<path d="M290.182 407.919C287.939 407.919 286.015 407.116 284.409 405.51C282.803 403.904 282 401.98 282 399.737C282 397.495 282.803 395.571 284.409 393.965C286.015 392.359 287.939 391.556 290.182 391.556C292.424 391.556 294.348 392.359 295.955 393.965C297.561 395.571 298.364 397.495 298.364 399.737C298.364 401.222 297.985 402.586 297.227 403.828C296.5 405.071 295.515 406.071 294.273 406.828C293.061 407.556 291.697 407.919 290.182 407.919Z" fill="black"/>
<path d="M325.432 407.919C323.189 407.919 321.265 407.116 319.659 405.51C318.053 403.904 317.25 401.98 317.25 399.737C317.25 397.495 318.053 395.571 319.659 393.965C321.265 392.359 323.189 391.556 325.432 391.556C327.674 391.556 329.598 392.359 331.205 393.965C332.811 395.571 333.614 397.495 333.614 399.737C333.614 401.222 333.235 402.586 332.477 403.828C331.75 405.071 330.765 406.071 329.523 406.828C328.311 407.556 326.947 407.919 325.432 407.919Z" fill="black"/>
<path d="M360.682 407.919C358.439 407.919 356.515 407.116 354.909 405.51C353.303 403.904 352.5 401.98 352.5 399.737C352.5 397.495 353.303 395.571 354.909 393.965C356.515 392.359 358.439 391.556 360.682 391.556C362.924 391.556 364.848 392.359 366.455 393.965C368.061 395.571 368.864 397.495 368.864 399.737C368.864 401.222 368.485 402.586 367.727 403.828C367 405.071 366.015 406.071 364.773 406.828C363.561 407.556 362.197 407.919 360.682 407.919Z" fill="black"/>
<path d="M395.932 407.919C393.689 407.919 391.765 407.116 390.159 405.51C388.553 403.904 387.75 401.98 387.75 399.737C387.75 397.495 388.553 395.571 390.159 393.965C391.765 392.359 393.689 391.556 395.932 391.556C398.174 391.556 400.098 392.359 401.705 393.965C403.311 395.571 404.114 397.495 404.114 399.737C404.114 401.222 403.735 402.586 402.977 403.828C402.25 405.071 401.265 406.071 400.023 406.828C398.811 407.556 397.447 407.919 395.932 407.919Z" fill="black"/>
<path d="M431.182 407.919C428.939 407.919 427.015 407.116 425.409 405.51C423.803 403.904 423 401.98 423 399.737C423 397.495 423.803 395.571 425.409 393.965C427.015 392.359 428.939 391.556 431.182 391.556C433.424 391.556 435.348 392.359 436.955 393.965C438.561 395.571 439.364 397.495 439.364 399.737C439.364 401.222 438.985 402.586 438.227 403.828C437.5 405.071 436.515 406.071 435.273 406.828C434.061 407.556 432.697 407.919 431.182 407.919Z" fill="black"/>
<path d="M466.432 407.919C464.189 407.919 462.265 407.116 460.659 405.51C459.053 403.904 458.25 401.98 458.25 399.737C458.25 397.495 459.053 395.571 460.659 393.965C462.265 392.359 464.189 391.556 466.432 391.556C468.674 391.556 470.598 392.359 472.205 393.965C473.811 395.571 474.614 397.495 474.614 399.737C474.614 401.222 474.235 402.586 473.477 403.828C472.75 405.071 471.765 406.071 470.523 406.828C469.311 407.556 467.947 407.919 466.432 407.919Z" fill="black"/>
<path d="M501.682 407.919C499.439 407.919 497.515 407.116 495.909 405.51C494.303 403.904 493.5 401.98 493.5 399.737C493.5 397.495 494.303 395.571 495.909 393.965C497.515 392.359 499.439 391.556 501.682 391.556C503.924 391.556 505.848 392.359 507.455 393.965C509.061 395.571 509.864 397.495 509.864 399.737C509.864 401.222 509.485 402.586 508.727 403.828C508 405.071 507.015 406.071 505.773 406.828C504.561 407.556 503.197 407.919 501.682 407.919Z" fill="black"/>
<path d="M536.932 407.919C534.689 407.919 532.765 407.116 531.159 405.51C529.553 403.904 528.75 401.98 528.75 399.737C528.75 397.495 529.553 395.571 531.159 393.965C532.765 392.359 534.689 391.556 536.932 391.556C539.174 391.556 541.098 392.359 542.705 393.965C544.311 395.571 545.114 397.495 545.114 399.737C545.114 401.222 544.735 402.586 543.977 403.828C543.25 405.071 542.265 406.071 541.023 406.828C539.811 407.556 538.447 407.919 536.932 407.919Z" fill="black"/>
<path d="M572.182 407.919C569.939 407.919 568.015 407.116 566.409 405.51C564.803 403.904 564 401.98 564 399.737C564 397.495 564.803 395.571 566.409 393.965C568.015 392.359 569.939 391.556 572.182 391.556C574.424 391.556 576.348 392.359 577.955 393.965C579.561 395.571 580.364 397.495 580.364 399.737C580.364 401.222 579.985 402.586 579.227 403.828C578.5 405.071 577.515 406.071 576.273 406.828C575.061 407.556 573.697 407.919 572.182 407.919Z" fill="black"/>
<path d="M607.432 407.919C605.189 407.919 603.265 407.116 601.659 405.51C600.053 403.904 599.25 401.98 599.25 399.737C599.25 397.495 600.053 395.571 601.659 393.965C603.265 392.359 605.189 391.556 607.432 391.556C609.674 391.556 611.598 392.359 613.205 393.965C614.811 395.571 615.614 397.495 615.614 399.737C615.614 401.222 615.235 402.586 614.477 403.828C613.75 405.071 612.765 406.071 611.523 406.828C610.311 407.556 608.947 407.919 607.432 407.919Z" fill="black"/>
<path d="M642.682 407.919C640.439 407.919 638.515 407.116 636.909 405.51C635.303 403.904 634.5 401.98 634.5 399.737C634.5 397.495 635.303 395.571 636.909 393.965C638.515 392.359 640.439 391.556 642.682 391.556C644.924 391.556 646.848 392.359 648.455 393.965C650.061 395.571 650.864 397.495 650.864 399.737C650.864 401.222 650.485 402.586 649.727 403.828C649 405.071 648.015 406.071 646.773 406.828C645.561 407.556 644.197 407.919 642.682 407.919Z" fill="black"/>
<path d="M677.932 407.919C675.689 407.919 673.765 407.116 672.159 405.51C670.553 403.904 669.75 401.98 669.75 399.737C669.75 397.495 670.553 395.571 672.159 393.965C673.765 392.359 675.689 391.556 677.932 391.556C680.174 391.556 682.098 392.359 683.705 393.965C685.311 395.571 686.114 397.495 686.114 399.737C686.114 401.222 685.735 402.586 684.977 403.828C684.25 405.071 683.265 406.071 682.023 406.828C680.811 407.556 679.447 407.919 677.932 407.919Z" fill="black"/>
<path d="M713.182 407.919C710.939 407.919 709.015 407.116 707.409 405.51C705.803 403.904 705 401.98 705 399.737C705 397.495 705.803 395.571 707.409 393.965C709.015 392.359 710.939 391.556 713.182 391.556C715.424 391.556 717.348 392.359 718.955 393.965C720.561 395.571 721.364 397.495 721.364 399.737C721.364 401.222 720.985 402.586 720.227 403.828C719.5 405.071 718.515 406.071 717.273 406.828C716.061 407.556 714.697 407.919 713.182 407.919Z" fill="black"/>
<path d="M748.432 407.919C746.189 407.919 744.265 407.116 742.659 405.51C741.053 403.904 740.25 401.98 740.25 399.737C740.25 397.495 741.053 395.571 742.659 393.965C744.265 392.359 746.189 391.556 748.432 391.556C750.674 391.556 752.598 392.359 754.205 393.965C755.811 395.571 756.614 397.495 756.614 399.737C756.614 401.222 756.235 402.586 755.477 403.828C754.75 405.071 753.765 406.071 752.523 406.828C751.311 407.556 749.947 407.919 748.432 407.919Z" fill="black"/>
<path d="M783.682 407.919C781.439 407.919 779.515 407.116 777.909 405.51C776.303 403.904 775.5 401.98 775.5 399.737C775.5 397.495 776.303 395.571 777.909 393.965C779.515 392.359 781.439 391.556 783.682 391.556C785.924 391.556 787.848 392.359 789.455 393.965C791.061 395.571 791.864 397.495 791.864 399.737C791.864 401.222 791.485 402.586 790.727 403.828C790 405.071 789.015 406.071 787.773 406.828C786.561 407.556 785.197 407.919 783.682 407.919Z" fill="black"/>
<path d="M818.932 407.919C816.689 407.919 814.765 407.116 813.159 405.51C811.553 403.904 810.75 401.98 810.75 399.737C810.75 397.495 811.553 395.571 813.159 393.965C814.765 392.359 816.689 391.556 818.932 391.556C821.174 391.556 823.098 392.359 824.705 393.965C826.311 395.571 827.114 397.495 827.114 399.737C827.114 401.222 826.735 402.586 825.977 403.828C825.25 405.071 824.265 406.071 823.023 406.828C821.811 407.556 820.447 407.919 818.932 407.919Z" fill="black"/>
<path d="M854.182 407.919C851.939 407.919 850.015 407.116 848.409 405.51C846.803 403.904 846 401.98 846 399.737C846 397.495 846.803 395.571 848.409 393.965C850.015 392.359 851.939 391.556 854.182 391.556C856.424 391.556 858.348 392.359 859.955 393.965C861.561 395.571 862.364 397.495 862.364 399.737C862.364 401.222 861.985 402.586 861.227 403.828C860.5 405.071 859.515 406.071 858.273 406.828C857.061 407.556 855.697 407.919 854.182 407.919Z" fill="black"/>
<path d="M889.432 407.919C887.189 407.919 885.265 407.116 883.659 405.51C882.053 403.904 881.25 401.98 881.25 399.737C881.25 397.495 882.053 395.571 883.659 393.965C885.265 392.359 887.189 391.556 889.432 391.556C891.674 391.556 893.598 392.359 895.205 393.965C896.811 395.571 897.614 397.495 897.614 399.737C897.614 401.222 897.235 402.586 896.477 403.828C895.75 405.071 894.765 406.071 893.523 406.828C892.311 407.556 890.947 407.919 889.432 407.919Z" fill="black"/>
<path d="M924.682 407.919C922.439 407.919 920.515 407.116 918.909 405.51C917.303 403.904 916.5 401.98 916.5 399.737C916.5 397.495 917.303 395.571 918.909 393.965C920.515 392.359 922.439 391.556 924.682 391.556C926.924 391.556 928.848 392.359 930.455 393.965C932.061 395.571 932.864 397.495 932.864 399.737C932.864 401.222 932.485 402.586 931.727 403.828C931 405.071 930.015 406.071 928.773 406.828C927.561 407.556 926.197 407.919 924.682 407.919Z" fill="black"/>
<path d="M959.932 407.919C957.689 407.919 955.765 407.116 954.159 405.51C952.553 403.904 951.75 401.98 951.75 399.737C951.75 397.495 952.553 395.571 954.159 393.965C955.765 392.359 957.689 391.556 959.932 391.556C962.174 391.556 964.098 392.359 965.705 393.965C967.311 395.571 968.114 397.495 968.114 399.737C968.114 401.222 967.735 402.586 966.977 403.828C966.25 405.071 965.265 406.071 964.023 406.828C962.811 407.556 961.447 407.919 959.932 407.919Z" fill="black"/>
<path d="M995.182 407.919C992.939 407.919 991.015 407.116 989.409 405.51C987.803 403.904 987 401.98 987 399.737C987 397.495 987.803 395.571 989.409 393.965C991.015 392.359 992.939 391.556 995.182 391.556C997.424 391.556 999.348 392.359 1000.95 393.965C1002.56 395.571 1003.36 397.495 1003.36 399.737C1003.36 401.222 1002.98 402.586 1002.23 403.828C1001.5 405.071 1000.52 406.071 999.273 406.828C998.061 407.556 996.697 407.919 995.182 407.919Z" fill="black"/>
<path d="M1030.43 407.919C1028.19 407.919 1026.27 407.116 1024.66 405.51C1023.05 403.904 1022.25 401.98 1022.25 399.737C1022.25 397.495 1023.05 395.571 1024.66 393.965C1026.27 392.359 1028.19 391.556 1030.43 391.556C1032.67 391.556 1034.6 392.359 1036.2 393.965C1037.81 395.571 1038.61 397.495 1038.61 399.737C1038.61 401.222 1038.23 402.586 1037.48 403.828C1036.75 405.071 1035.77 406.071 1034.52 406.828C1033.31 407.556 1031.95 407.919 1030.43 407.919Z" fill="black"/>
<path d="M1065.68 407.919C1063.44 407.919 1061.52 407.116 1059.91 405.51C1058.3 403.904 1057.5 401.98 1057.5 399.737C1057.5 397.495 1058.3 395.571 1059.91 393.965C1061.52 392.359 1063.44 391.556 1065.68 391.556C1067.92 391.556 1069.85 392.359 1071.45 393.965C1073.06 395.571 1073.86 397.495 1073.86 399.737C1073.86 401.222 1073.48 402.586 1072.73 403.828C1072 405.071 1071.02 406.071 1069.77 406.828C1068.56 407.556 1067.2 407.919 1065.68 407.919Z" fill="black"/>
<path d="M1100.93 407.919C1098.69 407.919 1096.77 407.116 1095.16 405.51C1093.55 403.904 1092.75 401.98 1092.75 399.737C1092.75 397.495 1093.55 395.571 1095.16 393.965C1096.77 392.359 1098.69 391.556 1100.93 391.556C1103.17 391.556 1105.1 392.359 1106.7 393.965C1108.31 395.571 1109.11 397.495 1109.11 399.737C1109.11 401.222 1108.73 402.586 1107.98 403.828C1107.25 405.071 1106.27 406.071 1105.02 406.828C1103.81 407.556 1102.45 407.919 1100.93 407.919Z" fill="black"/>
<path d="M1136.18 407.919C1133.94 407.919 1132.02 407.116 1130.41 405.51C1128.8 403.904 1128 401.98 1128 399.737C1128 397.495 1128.8 395.571 1130.41 393.965C1132.02 392.359 1133.94 391.556 1136.18 391.556C1138.42 391.556 1140.35 392.359 1141.95 393.965C1143.56 395.571 1144.36 397.495 1144.36 399.737C1144.36 401.222 1143.98 402.586 1143.23 403.828C1142.5 405.071 1141.52 406.071 1140.27 406.828C1139.06 407.556 1137.7 407.919 1136.18 407.919Z" fill="black"/>
<path d="M1171.43 407.919C1169.19 407.919 1167.27 407.116 1165.66 405.51C1164.05 403.904 1163.25 401.98 1163.25 399.737C1163.25 397.495 1164.05 395.571 1165.66 393.965C1167.27 392.359 1169.19 391.556 1171.43 391.556C1173.67 391.556 1175.6 392.359 1177.2 393.965C1178.81 395.571 1179.61 397.495 1179.61 399.737C1179.61 401.222 1179.23 402.586 1178.48 403.828C1177.75 405.071 1176.77 406.071 1175.52 406.828C1174.31 407.556 1172.95 407.919 1171.43 407.919Z" fill="black"/>
<path d="M1206.68 407.919C1204.44 407.919 1202.52 407.116 1200.91 405.51C1199.3 403.904 1198.5 401.98 1198.5 399.737C1198.5 397.495 1199.3 395.571 1200.91 393.965C1202.52 392.359 1204.44 391.556 1206.68 391.556C1208.92 391.556 1210.85 392.359 1212.45 393.965C1214.06 395.571 1214.86 397.495 1214.86 399.737C1214.86 401.222 1214.48 402.586 1213.73 403.828C1213 405.071 1212.02 406.071 1210.77 406.828C1209.56 407.556 1208.2 407.919 1206.68 407.919Z" fill="black"/>
<path d="M1241.93 407.919C1239.69 407.919 1237.77 407.116 1236.16 405.51C1234.55 403.904 1233.75 401.98 1233.75 399.737C1233.75 397.495 1234.55 395.571 1236.16 393.965C1237.77 392.359 1239.69 391.556 1241.93 391.556C1244.17 391.556 1246.1 392.359 1247.7 393.965C1249.31 395.571 1250.11 397.495 1250.11 399.737C1250.11 401.222 1249.73 402.586 1248.98 403.828C1248.25 405.071 1247.27 406.071 1246.02 406.828C1244.81 407.556 1243.45 407.919 1241.93 407.919Z" fill="black"/>
<path d="M1277.18 407.919C1274.94 407.919 1273.02 407.116 1271.41 405.51C1269.8 403.904 1269 401.98 1269 399.737C1269 397.495 1269.8 395.571 1271.41 393.965C1273.02 392.359 1274.94 391.556 1277.18 391.556C1279.42 391.556 1281.35 392.359 1282.95 393.965C1284.56 395.571 1285.36 397.495 1285.36 399.737C1285.36 401.222 1284.98 402.586 1284.23 403.828C1283.5 405.071 1282.52 406.071 1281.27 406.828C1280.06 407.556 1278.7 407.919 1277.18 407.919Z" fill="black"/>
<path d="M1312.43 407.919C1310.19 407.919 1308.27 407.116 1306.66 405.51C1305.05 403.904 1304.25 401.98 1304.25 399.737C1304.25 397.495 1305.05 395.571 1306.66 393.965C1308.27 392.359 1310.19 391.556 1312.43 391.556C1314.67 391.556 1316.6 392.359 1318.2 393.965C1319.81 395.571 1320.61 397.495 1320.61 399.737C1320.61 401.222 1320.23 402.586 1319.48 403.828C1318.75 405.071 1317.77 406.071 1316.52 406.828C1315.31 407.556 1313.95 407.919 1312.43 407.919Z" fill="black"/>
<path d="M1347.68 407.919C1345.44 407.919 1343.52 407.116 1341.91 405.51C1340.3 403.904 1339.5 401.98 1339.5 399.737C1339.5 397.495 1340.3 395.571 1341.91 393.965C1343.52 392.359 1345.44 391.556 1347.68 391.556C1349.92 391.556 1351.85 392.359 1353.45 393.965C1355.06 395.571 1355.86 397.495 1355.86 399.737C1355.86 401.222 1355.48 402.586 1354.73 403.828C1354 405.071 1353.02 406.071 1351.77 406.828C1350.56 407.556 1349.2 407.919 1347.68 407.919Z" fill="black"/>
<path d="M1382.93 407.919C1380.69 407.919 1378.77 407.116 1377.16 405.51C1375.55 403.904 1374.75 401.98 1374.75 399.737C1374.75 397.495 1375.55 395.571 1377.16 393.965C1378.77 392.359 1380.69 391.556 1382.93 391.556C1385.17 391.556 1387.1 392.359 1388.7 393.965C1390.31 395.571 1391.11 397.495 1391.11 399.737C1391.11 401.222 1390.73 402.586 1389.98 403.828C1389.25 405.071 1388.27 406.071 1387.02 406.828C1385.81 407.556 1384.45 407.919 1382.93 407.919Z" fill="black"/>
<path d="M1418.18 407.919C1415.94 407.919 1414.02 407.116 1412.41 405.51C1410.8 403.904 1410 401.98 1410 399.737C1410 397.495 1410.8 395.571 1412.41 393.965C1414.02 392.359 1415.94 391.556 1418.18 391.556C1420.42 391.556 1422.35 392.359 1423.95 393.965C1425.56 395.571 1426.36 397.495 1426.36 399.737C1426.36 401.222 1425.98 402.586 1425.23 403.828C1424.5 405.071 1423.52 406.071 1422.27 406.828C1421.06 407.556 1419.7 407.919 1418.18 407.919Z" fill="black"/>
<path d="M1453.43 407.919C1451.19 407.919 1449.27 407.116 1447.66 405.51C1446.05 403.904 1445.25 401.98 1445.25 399.737C1445.25 397.495 1446.05 395.571 1447.66 393.965C1449.27 392.359 1451.19 391.556 1453.43 391.556C1455.67 391.556 1457.6 392.359 1459.2 393.965C1460.81 395.571 1461.61 397.495 1461.61 399.737C1461.61 401.222 1461.23 402.586 1460.48 403.828C1459.75 405.071 1458.77 406.071 1457.52 406.828C1456.31 407.556 1454.95 407.919 1453.43 407.919Z" fill="black"/>
<path d="M1488.68 407.919C1486.44 407.919 1484.52 407.116 1482.91 405.51C1481.3 403.904 1480.5 401.98 1480.5 399.737C1480.5 397.495 1481.3 395.571 1482.91 393.965C1484.52 392.359 1486.44 391.556 1488.68 391.556C1490.92 391.556 1492.85 392.359 1494.45 393.965C1496.06 395.571 1496.86 397.495 1496.86 399.737C1496.86 401.222 1496.48 402.586 1495.73 403.828C1495 405.071 1494.02 406.071 1492.77 406.828C1491.56 407.556 1490.2 407.919 1488.68 407.919Z" fill="black"/>
<path d="M1523.93 407.919C1521.69 407.919 1519.77 407.116 1518.16 405.51C1516.55 403.904 1515.75 401.98 1515.75 399.737C1515.75 397.495 1516.55 395.571 1518.16 393.965C1519.77 392.359 1521.69 391.556 1523.93 391.556C1526.17 391.556 1528.1 392.359 1529.7 393.965C1531.31 395.571 1532.11 397.495 1532.11 399.737C1532.11 401.222 1531.73 402.586 1530.98 403.828C1530.25 405.071 1529.27 406.071 1528.02 406.828C1526.81 407.556 1525.45 407.919 1523.93 407.919Z" fill="black"/>
<path d="M1559.18 407.919C1556.94 407.919 1555.02 407.116 1553.41 405.51C1551.8 403.904 1551 401.98 1551 399.737C1551 397.495 1551.8 395.571 1553.41 393.965C1555.02 392.359 1556.94 391.556 1559.18 391.556C1561.42 391.556 1563.35 392.359 1564.95 393.965C1566.56 395.571 1567.36 397.495 1567.36 399.737C1567.36 401.222 1566.98 402.586 1566.23 403.828C1565.5 405.071 1564.52 406.071 1563.27 406.828C1562.06 407.556 1560.7 407.919 1559.18 407.919Z" fill="black"/>
<path d="M1594.43 407.919C1592.19 407.919 1590.27 407.116 1588.66 405.51C1587.05 403.904 1586.25 401.98 1586.25 399.737C1586.25 397.495 1587.05 395.571 1588.66 393.965C1590.27 392.359 1592.19 391.556 1594.43 391.556C1596.67 391.556 1598.6 392.359 1600.2 393.965C1601.81 395.571 1602.61 397.495 1602.61 399.737C1602.61 401.222 1602.23 402.586 1601.48 403.828C1600.75 405.071 1599.77 406.071 1598.52 406.828C1597.31 407.556 1595.95 407.919 1594.43 407.919Z" fill="black"/>
<path d="M1629.68 407.919C1627.44 407.919 1625.52 407.116 1623.91 405.51C1622.3 403.904 1621.5 401.98 1621.5 399.737C1621.5 397.495 1622.3 395.571 1623.91 393.965C1625.52 392.359 1627.44 391.556 1629.68 391.556C1631.92 391.556 1633.85 392.359 1635.45 393.965C1637.06 395.571 1637.86 397.495 1637.86 399.737C1637.86 401.222 1637.48 402.586 1636.73 403.828C1636 405.071 1635.02 406.071 1633.77 406.828C1632.56 407.556 1631.2 407.919 1629.68 407.919Z" fill="black"/>
<path d="M1664.93 407.919C1662.69 407.919 1660.77 407.116 1659.16 405.51C1657.55 403.904 1656.75 401.98 1656.75 399.737C1656.75 397.495 1657.55 395.571 1659.16 393.965C1660.77 392.359 1662.69 391.556 1664.93 391.556C1667.17 391.556 1669.1 392.359 1670.7 393.965C1672.31 395.571 1673.11 397.495 1673.11 399.737C1673.11 401.222 1672.73 402.586 1671.98 403.828C1671.25 405.071 1670.27 406.071 1669.02 406.828C1667.81 407.556 1666.45 407.919 1664.93 407.919Z" fill="black"/>
<path d="M1700.18 407.919C1697.94 407.919 1696.02 407.116 1694.41 405.51C1692.8 403.904 1692 401.98 1692 399.737C1692 397.495 1692.8 395.571 1694.41 393.965C1696.02 392.359 1697.94 391.556 1700.18 391.556C1702.42 391.556 1704.35 392.359 1705.95 393.965C1707.56 395.571 1708.36 397.495 1708.36 399.737C1708.36 401.222 1707.98 402.586 1707.23 403.828C1706.5 405.071 1705.52 406.071 1704.27 406.828C1703.06 407.556 1701.7 407.919 1700.18 407.919Z" fill="black"/>
<path d="M1735.43 407.919C1733.19 407.919 1731.27 407.116 1729.66 405.51C1728.05 403.904 1727.25 401.98 1727.25 399.737C1727.25 397.495 1728.05 395.571 1729.66 393.965C1731.27 392.359 1733.19 391.556 1735.43 391.556C1737.67 391.556 1739.6 392.359 1741.2 393.965C1742.81 395.571 1743.61 397.495 1743.61 399.737C1743.61 401.222 1743.23 402.586 1742.48 403.828C1741.75 405.071 1740.77 406.071 1739.52 406.828C1738.31 407.556 1736.95 407.919 1735.43 407.919Z" fill="black"/>
<path d="M1770.68 407.919C1768.44 407.919 1766.52 407.116 1764.91 405.51C1763.3 403.904 1762.5 401.98 1762.5 399.737C1762.5 397.495 1763.3 395.571 1764.91 393.965C1766.52 392.359 1768.44 391.556 1770.68 391.556C1772.92 391.556 1774.85 392.359 1776.45 393.965C1778.06 395.571 1778.86 397.495 1778.86 399.737C1778.86 401.222 1778.48 402.586 1777.73 403.828C1777 405.071 1776.02 406.071 1774.77 406.828C1773.56 407.556 1772.2 407.919 1770.68 407.919Z" fill="black"/>
<path d="M1805.93 407.919C1803.69 407.919 1801.77 407.116 1800.16 405.51C1798.55 403.904 1797.75 401.98 1797.75 399.737C1797.75 397.495 1798.55 395.571 1800.16 393.965C1801.77 392.359 1803.69 391.556 1805.93 391.556C1808.17 391.556 1810.1 392.359 1811.7 393.965C1813.31 395.571 1814.11 397.495 1814.11 399.737C1814.11 401.222 1813.73 402.586 1812.98 403.828C1812.25 405.071 1811.27 406.071 1810.02 406.828C1808.81 407.556 1807.45 407.919 1805.93 407.919Z" fill="black"/>
<path d="M1841.18 407.919C1838.94 407.919 1837.02 407.116 1835.41 405.51C1833.8 403.904 1833 401.98 1833 399.737C1833 397.495 1833.8 395.571 1835.41 393.965C1837.02 392.359 1838.94 391.556 1841.18 391.556C1843.42 391.556 1845.35 392.359 1846.95 393.965C1848.56 395.571 1849.36 397.495 1849.36 399.737C1849.36 401.222 1848.98 402.586 1848.23 403.828C1847.5 405.071 1846.52 406.071 1845.27 406.828C1844.06 407.556 1842.7 407.919 1841.18 407.919Z" fill="black"/>
<path d="M1876.43 407.919C1874.19 407.919 1872.27 407.116 1870.66 405.51C1869.05 403.904 1868.25 401.98 1868.25 399.737C1868.25 397.495 1869.05 395.571 1870.66 393.965C1872.27 392.359 1874.19 391.556 1876.43 391.556C1878.67 391.556 1880.6 392.359 1882.2 393.965C1883.81 395.571 1884.61 397.495 1884.61 399.737C1884.61 401.222 1884.23 402.586 1883.48 403.828C1882.75 405.071 1881.77 406.071 1880.52 406.828C1879.31 407.556 1877.95 407.919 1876.43 407.919Z" fill="black"/>
<path d="M1911.68 407.919C1909.44 407.919 1907.52 407.116 1905.91 405.51C1904.3 403.904 1903.5 401.98 1903.5 399.737C1903.5 397.495 1904.3 395.571 1905.91 393.965C1907.52 392.359 1909.44 391.556 1911.68 391.556C1913.92 391.556 1915.85 392.359 1917.45 393.965C1919.06 395.571 1919.86 397.495 1919.86 399.737C1919.86 401.222 1919.48 402.586 1918.73 403.828C1918 405.071 1917.02 406.071 1915.77 406.828C1914.56 407.556 1913.2 407.919 1911.68 407.919Z" fill="black"/>
<path d="M1946.93 407.919C1944.69 407.919 1942.77 407.116 1941.16 405.51C1939.55 403.904 1938.75 401.98 1938.75 399.737C1938.75 397.495 1939.55 395.571 1941.16 393.965C1942.77 392.359 1944.69 391.556 1946.93 391.556C1949.17 391.556 1951.1 392.359 1952.7 393.965C1954.31 395.571 1955.11 397.495 1955.11 399.737C1955.11 401.222 1954.73 402.586 1953.98 403.828C1953.25 405.071 1952.27 406.071 1951.02 406.828C1949.81 407.556 1948.45 407.919 1946.93 407.919Z" fill="black"/>
<path d="M1982.18 407.919C1979.94 407.919 1978.02 407.116 1976.41 405.51C1974.8 403.904 1974 401.98 1974 399.737C1974 397.495 1974.8 395.571 1976.41 393.965C1978.02 392.359 1979.94 391.556 1982.18 391.556C1984.42 391.556 1986.35 392.359 1987.95 393.965C1989.56 395.571 1990.36 397.495 1990.36 399.737C1990.36 401.222 1989.98 402.586 1989.23 403.828C1988.5 405.071 1987.52 406.071 1986.27 406.828C1985.06 407.556 1983.7 407.919 1982.18 407.919Z" fill="black"/>
<path d="M2017.43 407.919C2015.19 407.919 2013.27 407.116 2011.66 405.51C2010.05 403.904 2009.25 401.98 2009.25 399.737C2009.25 397.495 2010.05 395.571 2011.66 393.965C2013.27 392.359 2015.19 391.556 2017.43 391.556C2019.67 391.556 2021.6 392.359 2023.2 393.965C2024.81 395.571 2025.61 397.495 2025.61 399.737C2025.61 401.222 2025.23 402.586 2024.48 403.828C2023.75 405.071 2022.77 406.071 2021.52 406.828C2020.31 407.556 2018.95 407.919 2017.43 407.919Z" fill="black"/>
<path d="M2052.68 407.919C2050.44 407.919 2048.52 407.116 2046.91 405.51C2045.3 403.904 2044.5 401.98 2044.5 399.737C2044.5 397.495 2045.3 395.571 2046.91 393.965C2048.52 392.359 2050.44 391.556 2052.68 391.556C2054.92 391.556 2056.85 392.359 2058.45 393.965C2060.06 395.571 2060.86 397.495 2060.86 399.737C2060.86 401.222 2060.48 402.586 2059.73 403.828C2059 405.071 2058.02 406.071 2056.77 406.828C2055.56 407.556 2054.2 407.919 2052.68 407.919Z" fill="black"/>
<path d="M2087.93 407.919C2085.69 407.919 2083.77 407.116 2082.16 405.51C2080.55 403.904 2079.75 401.98 2079.75 399.737C2079.75 397.495 2080.55 395.571 2082.16 393.965C2083.77 392.359 2085.69 391.556 2087.93 391.556C2090.17 391.556 2092.1 392.359 2093.7 393.965C2095.31 395.571 2096.11 397.495 2096.11 399.737C2096.11 401.222 2095.73 402.586 2094.98 403.828C2094.25 405.071 2093.27 406.071 2092.02 406.828C2090.81 407.556 2089.45 407.919 2087.93 407.919Z" fill="black"/>
<path d="M2123.18 407.919C2120.94 407.919 2119.02 407.116 2117.41 405.51C2115.8 403.904 2115 401.98 2115 399.737C2115 397.495 2115.8 395.571 2117.41 393.965C2119.02 392.359 2120.94 391.556 2123.18 391.556C2125.42 391.556 2127.35 392.359 2128.95 393.965C2130.56 395.571 2131.36 397.495 2131.36 399.737C2131.36 401.222 2130.98 402.586 2130.23 403.828C2129.5 405.071 2128.52 406.071 2127.27 406.828C2126.06 407.556 2124.7 407.919 2123.18 407.919Z" fill="black"/>
<path d="M2158.43 407.919C2156.19 407.919 2154.27 407.116 2152.66 405.51C2151.05 403.904 2150.25 401.98 2150.25 399.737C2150.25 397.495 2151.05 395.571 2152.66 393.965C2154.27 392.359 2156.19 391.556 2158.43 391.556C2160.67 391.556 2162.6 392.359 2164.2 393.965C2165.81 395.571 2166.61 397.495 2166.61 399.737C2166.61 401.222 2166.23 402.586 2165.48 403.828C2164.75 405.071 2163.77 406.071 2162.52 406.828C2161.31 407.556 2159.95 407.919 2158.43 407.919Z" fill="black"/>
<path d="M2193.68 407.919C2191.44 407.919 2189.52 407.116 2187.91 405.51C2186.3 403.904 2185.5 401.98 2185.5 399.737C2185.5 397.495 2186.3 395.571 2187.91 393.965C2189.52 392.359 2191.44 391.556 2193.68 391.556C2195.92 391.556 2197.85 392.359 2199.45 393.965C2201.06 395.571 2201.86 397.495 2201.86 399.737C2201.86 401.222 2201.48 402.586 2200.73 403.828C2200 405.071 2199.02 406.071 2197.77 406.828C2196.56 407.556 2195.2 407.919 2193.68 407.919Z" fill="black"/>
<path d="M2228.93 407.919C2226.69 407.919 2224.77 407.116 2223.16 405.51C2221.55 403.904 2220.75 401.98 2220.75 399.737C2220.75 397.495 2221.55 395.571 2223.16 393.965C2224.77 392.359 2226.69 391.556 2228.93 391.556C2231.17 391.556 2233.1 392.359 2234.7 393.965C2236.31 395.571 2237.11 397.495 2237.11 399.737C2237.11 401.222 2236.73 402.586 2235.98 403.828C2235.25 405.071 2234.27 406.071 2233.02 406.828C2231.81 407.556 2230.45 407.919 2228.93 407.919Z" fill="black"/>
<path d="M2264.18 407.919C2261.94 407.919 2260.02 407.116 2258.41 405.51C2256.8 403.904 2256 401.98 2256 399.737C2256 397.495 2256.8 395.571 2258.41 393.965C2260.02 392.359 2261.94 391.556 2264.18 391.556C2266.42 391.556 2268.35 392.359 2269.95 393.965C2271.56 395.571 2272.36 397.495 2272.36 399.737C2272.36 401.222 2271.98 402.586 2271.23 403.828C2270.5 405.071 2269.52 406.071 2268.27 406.828C2267.06 407.556 2265.7 407.919 2264.18 407.919Z" fill="black"/>
<path d="M2299.43 407.919C2297.19 407.919 2295.27 407.116 2293.66 405.51C2292.05 403.904 2291.25 401.98 2291.25 399.737C2291.25 397.495 2292.05 395.571 2293.66 393.965C2295.27 392.359 2297.19 391.556 2299.43 391.556C2301.67 391.556 2303.6 392.359 2305.2 393.965C2306.81 395.571 2307.61 397.495 2307.61 399.737C2307.61 401.222 2307.23 402.586 2306.48 403.828C2305.75 405.071 2304.77 406.071 2303.52 406.828C2302.31 407.556 2300.95 407.919 2299.43 407.919Z" fill="black"/>
<path d="M2334.68 407.919C2332.44 407.919 2330.52 407.116 2328.91 405.51C2327.3 403.904 2326.5 401.98 2326.5 399.737C2326.5 397.495 2327.3 395.571 2328.91 393.965C2330.52 392.359 2332.44 391.556 2334.68 391.556C2336.92 391.556 2338.85 392.359 2340.45 393.965C2342.06 395.571 2342.86 397.495 2342.86 399.737C2342.86 401.222 2342.48 402.586 2341.73 403.828C2341 405.071 2340.02 406.071 2338.77 406.828C2337.56 407.556 2336.2 407.919 2334.68 407.919Z" fill="black"/>
<path d="M2369.93 407.919C2367.69 407.919 2365.77 407.116 2364.16 405.51C2362.55 403.904 2361.75 401.98 2361.75 399.737C2361.75 397.495 2362.55 395.571 2364.16 393.965C2365.77 392.359 2367.69 391.556 2369.93 391.556C2372.17 391.556 2374.1 392.359 2375.7 393.965C2377.31 395.571 2378.11 397.495 2378.11 399.737C2378.11 401.222 2377.73 402.586 2376.98 403.828C2376.25 405.071 2375.27 406.071 2374.02 406.828C2372.81 407.556 2371.45 407.919 2369.93 407.919Z" fill="black"/>
<path d="M2405.18 407.919C2402.94 407.919 2401.02 407.116 2399.41 405.51C2397.8 403.904 2397 401.98 2397 399.737C2397 397.495 2397.8 395.571 2399.41 393.965C2401.02 392.359 2402.94 391.556 2405.18 391.556C2407.42 391.556 2409.35 392.359 2410.95 393.965C2412.56 395.571 2413.36 397.495 2413.36 399.737C2413.36 401.222 2412.98 402.586 2412.23 403.828C2411.5 405.071 2410.52 406.071 2409.27 406.828C2408.06 407.556 2406.7 407.919 2405.18 407.919Z" fill="black"/>
<path d="M2440.43 407.919C2438.19 407.919 2436.27 407.116 2434.66 405.51C2433.05 403.904 2432.25 401.98 2432.25 399.737C2432.25 397.495 2433.05 395.571 2434.66 393.965C2436.27 392.359 2438.19 391.556 2440.43 391.556C2442.67 391.556 2444.6 392.359 2446.2 393.965C2447.81 395.571 2448.61 397.495 2448.61 399.737C2448.61 401.222 2448.23 402.586 2447.48 403.828C2446.75 405.071 2445.77 406.071 2444.52 406.828C2443.31 407.556 2441.95 407.919 2440.43 407.919Z" fill="black"/>
<path d="M2475.68 407.919C2473.44 407.919 2471.52 407.116 2469.91 405.51C2468.3 403.904 2467.5 401.98 2467.5 399.737C2467.5 397.495 2468.3 395.571 2469.91 393.965C2471.52 392.359 2473.44 391.556 2475.68 391.556C2477.92 391.556 2479.85 392.359 2481.45 393.965C2483.06 395.571 2483.86 397.495 2483.86 399.737C2483.86 401.222 2483.48 402.586 2482.73 403.828C2482 405.071 2481.02 406.071 2479.77 406.828C2478.56 407.556 2477.2 407.919 2475.68 407.919Z" fill="black"/>
<path d="M2510.93 407.919C2508.69 407.919 2506.77 407.116 2505.16 405.51C2503.55 403.904 2502.75 401.98 2502.75 399.737C2502.75 397.495 2503.55 395.571 2505.16 393.965C2506.77 392.359 2508.69 391.556 2510.93 391.556C2513.17 391.556 2515.1 392.359 2516.7 393.965C2518.31 395.571 2519.11 397.495 2519.11 399.737C2519.11 401.222 2518.73 402.586 2517.98 403.828C2517.25 405.071 2516.27 406.071 2515.02 406.828C2513.81 407.556 2512.45 407.919 2510.93 407.919Z" fill="black"/>
<path d="M2546.18 407.919C2543.94 407.919 2542.02 407.116 2540.41 405.51C2538.8 403.904 2538 401.98 2538 399.737C2538 397.495 2538.8 395.571 2540.41 393.965C2542.02 392.359 2543.94 391.556 2546.18 391.556C2548.42 391.556 2550.35 392.359 2551.95 393.965C2553.56 395.571 2554.36 397.495 2554.36 399.737C2554.36 401.222 2553.98 402.586 2553.23 403.828C2552.5 405.071 2551.52 406.071 2550.27 406.828C2549.06 407.556 2547.7 407.919 2546.18 407.919Z" fill="black"/>
<path d="M2581.43 407.919C2579.19 407.919 2577.27 407.116 2575.66 405.51C2574.05 403.904 2573.25 401.98 2573.25 399.737C2573.25 397.495 2574.05 395.571 2575.66 393.965C2577.27 392.359 2579.19 391.556 2581.43 391.556C2583.67 391.556 2585.6 392.359 2587.2 393.965C2588.81 395.571 2589.61 397.495 2589.61 399.737C2589.61 401.222 2589.23 402.586 2588.48 403.828C2587.75 405.071 2586.77 406.071 2585.52 406.828C2584.31 407.556 2582.95 407.919 2581.43 407.919Z" fill="black"/>
<path d="M2616.68 407.919C2614.44 407.919 2612.52 407.116 2610.91 405.51C2609.3 403.904 2608.5 401.98 2608.5 399.737C2608.5 397.495 2609.3 395.571 2610.91 393.965C2612.52 392.359 2614.44 391.556 2616.68 391.556C2618.92 391.556 2620.85 392.359 2622.45 393.965C2624.06 395.571 2624.86 397.495 2624.86 399.737C2624.86 401.222 2624.48 402.586 2623.73 403.828C2623 405.071 2622.02 406.071 2620.77 406.828C2619.56 407.556 2618.2 407.919 2616.68 407.919Z" fill="black"/>
<path d="M2651.93 407.919C2649.69 407.919 2647.77 407.116 2646.16 405.51C2644.55 403.904 2643.75 401.98 2643.75 399.737C2643.75 397.495 2644.55 395.571 2646.16 393.965C2647.77 392.359 2649.69 391.556 2651.93 391.556C2654.17 391.556 2656.1 392.359 2657.7 393.965C2659.31 395.571 2660.11 397.495 2660.11 399.737C2660.11 401.222 2659.73 402.586 2658.98 403.828C2658.25 405.071 2657.27 406.071 2656.02 406.828C2654.81 407.556 2653.45 407.919 2651.93 407.919Z" fill="black"/>
<path d="M2687.18 407.919C2684.94 407.919 2683.02 407.116 2681.41 405.51C2679.8 403.904 2679 401.98 2679 399.737C2679 397.495 2679.8 395.571 2681.41 393.965C2683.02 392.359 2684.94 391.556 2687.18 391.556C2689.42 391.556 2691.35 392.359 2692.95 393.965C2694.56 395.571 2695.36 397.495 2695.36 399.737C2695.36 401.222 2694.98 402.586 2694.23 403.828C2693.5 405.071 2692.52 406.071 2691.27 406.828C2690.06 407.556 2688.7 407.919 2687.18 407.919Z" fill="black"/>
<path d="M2722.43 407.919C2720.19 407.919 2718.27 407.116 2716.66 405.51C2715.05 403.904 2714.25 401.98 2714.25 399.737C2714.25 397.495 2715.05 395.571 2716.66 393.965C2718.27 392.359 2720.19 391.556 2722.43 391.556C2724.67 391.556 2726.6 392.359 2728.2 393.965C2729.81 395.571 2730.61 397.495 2730.61 399.737C2730.61 401.222 2730.23 402.586 2729.48 403.828C2728.75 405.071 2727.77 406.071 2726.52 406.828C2725.31 407.556 2723.95 407.919 2722.43 407.919Z" fill="black"/>
<path d="M2757.68 407.919C2755.44 407.919 2753.52 407.116 2751.91 405.51C2750.3 403.904 2749.5 401.98 2749.5 399.737C2749.5 397.495 2750.3 395.571 2751.91 393.965C2753.52 392.359 2755.44 391.556 2757.68 391.556C2759.92 391.556 2761.85 392.359 2763.45 393.965C2765.06 395.571 2765.86 397.495 2765.86 399.737C2765.86 401.222 2765.48 402.586 2764.73 403.828C2764 405.071 2763.02 406.071 2761.77 406.828C2760.56 407.556 2759.2 407.919 2757.68 407.919Z" fill="black"/>
<path d="M2792.93 407.919C2790.69 407.919 2788.77 407.116 2787.16 405.51C2785.55 403.904 2784.75 401.98 2784.75 399.737C2784.75 397.495 2785.55 395.571 2787.16 393.965C2788.77 392.359 2790.69 391.556 2792.93 391.556C2795.17 391.556 2797.1 392.359 2798.7 393.965C2800.31 395.571 2801.11 397.495 2801.11 399.737C2801.11 401.222 2800.73 402.586 2799.98 403.828C2799.25 405.071 2798.27 406.071 2797.02 406.828C2795.81 407.556 2794.45 407.919 2792.93 407.919Z" fill="black"/>
<path d="M2828.18 407.919C2825.94 407.919 2824.02 407.116 2822.41 405.51C2820.8 403.904 2820 401.98 2820 399.737C2820 397.495 2820.8 395.571 2822.41 393.965C2824.02 392.359 2825.94 391.556 2828.18 391.556C2830.42 391.556 2832.35 392.359 2833.95 393.965C2835.56 395.571 2836.36 397.495 2836.36 399.737C2836.36 401.222 2835.98 402.586 2835.23 403.828C2834.5 405.071 2833.52 406.071 2832.27 406.828C2831.06 407.556 2829.7 407.919 2828.18 407.919Z" fill="black"/>
<path d="M2863.43 407.919C2861.19 407.919 2859.27 407.116 2857.66 405.51C2856.05 403.904 2855.25 401.98 2855.25 399.737C2855.25 397.495 2856.05 395.571 2857.66 393.965C2859.27 392.359 2861.19 391.556 2863.43 391.556C2865.67 391.556 2867.6 392.359 2869.2 393.965C2870.81 395.571 2871.61 397.495 2871.61 399.737C2871.61 401.222 2871.23 402.586 2870.48 403.828C2869.75 405.071 2868.77 406.071 2867.52 406.828C2866.31 407.556 2864.95 407.919 2863.43 407.919Z" fill="black"/>
<path d="M2898.68 407.919C2896.44 407.919 2894.52 407.116 2892.91 405.51C2891.3 403.904 2890.5 401.98 2890.5 399.737C2890.5 397.495 2891.3 395.571 2892.91 393.965C2894.52 392.359 2896.44 391.556 2898.68 391.556C2900.92 391.556 2902.85 392.359 2904.45 393.965C2906.06 395.571 2906.86 397.495 2906.86 399.737C2906.86 401.222 2906.48 402.586 2905.73 403.828C2905 405.071 2904.02 406.071 2902.77 406.828C2901.56 407.556 2900.2 407.919 2898.68 407.919Z" fill="black"/>
<path d="M2933.93 407.919C2931.69 407.919 2929.77 407.116 2928.16 405.51C2926.55 403.904 2925.75 401.98 2925.75 399.737C2925.75 397.495 2926.55 395.571 2928.16 393.965C2929.77 392.359 2931.69 391.556 2933.93 391.556C2936.17 391.556 2938.1 392.359 2939.7 393.965C2941.31 395.571 2942.11 397.495 2942.11 399.737C2942.11 401.222 2941.73 402.586 2940.98 403.828C2940.25 405.071 2939.27 406.071 2938.02 406.828C2936.81 407.556 2935.45 407.919 2933.93 407.919Z" fill="black"/>
<path d="M2969.18 407.919C2966.94 407.919 2965.02 407.116 2963.41 405.51C2961.8 403.904 2961 401.98 2961 399.737C2961 397.495 2961.8 395.571 2963.41 393.965C2965.02 392.359 2966.94 391.556 2969.18 391.556C2971.42 391.556 2973.35 392.359 2974.95 393.965C2976.56 395.571 2977.36 397.495 2977.36 399.737C2977.36 401.222 2976.98 402.586 2976.23 403.828C2975.5 405.071 2974.52 406.071 2973.27 406.828C2972.06 407.556 2970.7 407.919 2969.18 407.919Z" fill="black"/>
<path d="M3004.43 407.919C3002.19 407.919 3000.27 407.116 2998.66 405.51C2997.05 403.904 2996.25 401.98 2996.25 399.737C2996.25 397.495 2997.05 395.571 2998.66 393.965C3000.27 392.359 3002.19 391.556 3004.43 391.556C3006.67 391.556 3008.6 392.359 3010.2 393.965C3011.81 395.571 3012.61 397.495 3012.61 399.737C3012.61 401.222 3012.23 402.586 3011.48 403.828C3010.75 405.071 3009.77 406.071 3008.52 406.828C3007.31 407.556 3005.95 407.919 3004.43 407.919Z" fill="black"/>
<path d="M3039.68 407.919C3037.44 407.919 3035.52 407.116 3033.91 405.51C3032.3 403.904 3031.5 401.98 3031.5 399.737C3031.5 397.495 3032.3 395.571 3033.91 393.965C3035.52 392.359 3037.44 391.556 3039.68 391.556C3041.92 391.556 3043.85 392.359 3045.45 393.965C3047.06 395.571 3047.86 397.495 3047.86 399.737C3047.86 401.222 3047.48 402.586 3046.73 403.828C3046 405.071 3045.02 406.071 3043.77 406.828C3042.56 407.556 3041.2 407.919 3039.68 407.919Z" fill="black"/>
<path d="M3074.93 407.919C3072.69 407.919 3070.77 407.116 3069.16 405.51C3067.55 403.904 3066.75 401.98 3066.75 399.737C3066.75 397.495 3067.55 395.571 3069.16 393.965C3070.77 392.359 3072.69 391.556 3074.93 391.556C3077.17 391.556 3079.1 392.359 3080.7 393.965C3082.31 395.571 3083.11 397.495 3083.11 399.737C3083.11 401.222 3082.73 402.586 3081.98 403.828C3081.25 405.071 3080.27 406.071 3079.02 406.828C3077.81 407.556 3076.45 407.919 3074.93 407.919Z" fill="black"/>
<path d="M3110.18 407.919C3107.94 407.919 3106.02 407.116 3104.41 405.51C3102.8 403.904 3102 401.98 3102 399.737C3102 397.495 3102.8 395.571 3104.41 393.965C3106.02 392.359 3107.94 391.556 3110.18 391.556C3112.42 391.556 3114.35 392.359 3115.95 393.965C3117.56 395.571 3118.36 397.495 3118.36 399.737C3118.36 401.222 3117.98 402.586 3117.23 403.828C3116.5 405.071 3115.52 406.071 3114.27 406.828C3113.06 407.556 3111.7 407.919 3110.18 407.919Z" fill="black"/>
<path d="M3145.43 407.919C3143.19 407.919 3141.27 407.116 3139.66 405.51C3138.05 403.904 3137.25 401.98 3137.25 399.737C3137.25 397.495 3138.05 395.571 3139.66 393.965C3141.27 392.359 3143.19 391.556 3145.43 391.556C3147.67 391.556 3149.6 392.359 3151.2 393.965C3152.81 395.571 3153.61 397.495 3153.61 399.737C3153.61 401.222 3153.23 402.586 3152.48 403.828C3151.75 405.071 3150.77 406.071 3149.52 406.828C3148.31 407.556 3146.95 407.919 3145.43 407.919Z" fill="black"/>
<path d="M3180.68 407.919C3178.44 407.919 3176.52 407.116 3174.91 405.51C3173.3 403.904 3172.5 401.98 3172.5 399.737C3172.5 397.495 3173.3 395.571 3174.91 393.965C3176.52 392.359 3178.44 391.556 3180.68 391.556C3182.92 391.556 3184.85 392.359 3186.45 393.965C3188.06 395.571 3188.86 397.495 3188.86 399.737C3188.86 401.222 3188.48 402.586 3187.73 403.828C3187 405.071 3186.02 406.071 3184.77 406.828C3183.56 407.556 3182.2 407.919 3180.68 407.919Z" fill="black"/>
<path d="M3215.93 407.919C3213.69 407.919 3211.77 407.116 3210.16 405.51C3208.55 403.904 3207.75 401.98 3207.75 399.737C3207.75 397.495 3208.55 395.571 3210.16 393.965C3211.77 392.359 3213.69 391.556 3215.93 391.556C3218.17 391.556 3220.1 392.359 3221.7 393.965C3223.31 395.571 3224.11 397.495 3224.11 399.737C3224.11 401.222 3223.73 402.586 3222.98 403.828C3222.25 405.071 3221.27 406.071 3220.02 406.828C3218.81 407.556 3217.45 407.919 3215.93 407.919Z" fill="black"/>
<path d="M3251.18 407.919C3248.94 407.919 3247.02 407.116 3245.41 405.51C3243.8 403.904 3243 401.98 3243 399.737C3243 397.495 3243.8 395.571 3245.41 393.965C3247.02 392.359 3248.94 391.556 3251.18 391.556C3253.42 391.556 3255.35 392.359 3256.95 393.965C3258.56 395.571 3259.36 397.495 3259.36 399.737C3259.36 401.222 3258.98 402.586 3258.23 403.828C3257.5 405.071 3256.52 406.071 3255.27 406.828C3254.06 407.556 3252.7 407.919 3251.18 407.919Z" fill="black"/>
<path d="M3286.43 407.919C3284.19 407.919 3282.27 407.116 3280.66 405.51C3279.05 403.904 3278.25 401.98 3278.25 399.737C3278.25 397.495 3279.05 395.571 3280.66 393.965C3282.27 392.359 3284.19 391.556 3286.43 391.556C3288.67 391.556 3290.6 392.359 3292.2 393.965C3293.81 395.571 3294.61 397.495 3294.61 399.737C3294.61 401.222 3294.23 402.586 3293.48 403.828C3292.75 405.071 3291.77 406.071 3290.52 406.828C3289.31 407.556 3287.95 407.919 3286.43 407.919Z" fill="black"/>
<path d="M3321.68 407.919C3319.44 407.919 3317.52 407.116 3315.91 405.51C3314.3 403.904 3313.5 401.98 3313.5 399.737C3313.5 397.495 3314.3 395.571 3315.91 393.965C3317.52 392.359 3319.44 391.556 3321.68 391.556C3323.92 391.556 3325.85 392.359 3327.45 393.965C3329.06 395.571 3329.86 397.495 3329.86 399.737C3329.86 401.222 3329.48 402.586 3328.73 403.828C3328 405.071 3327.02 406.071 3325.77 406.828C3324.56 407.556 3323.2 407.919 3321.68 407.919Z" fill="black"/>
<path d="M3356.93 407.919C3354.69 407.919 3352.77 407.116 3351.16 405.51C3349.55 403.904 3348.75 401.98 3348.75 399.737C3348.75 397.495 3349.55 395.571 3351.16 393.965C3352.77 392.359 3354.69 391.556 3356.93 391.556C3359.17 391.556 3361.1 392.359 3362.7 393.965C3364.31 395.571 3365.11 397.495 3365.11 399.737C3365.11 401.222 3364.73 402.586 3363.98 403.828C3363.25 405.071 3362.27 406.071 3361.02 406.828C3359.81 407.556 3358.45 407.919 3356.93 407.919Z" fill="black"/>
<path d="M3392.18 407.919C3389.94 407.919 3388.02 407.116 3386.41 405.51C3384.8 403.904 3384 401.98 3384 399.737C3384 397.495 3384.8 395.571 3386.41 393.965C3388.02 392.359 3389.94 391.556 3392.18 391.556C3394.42 391.556 3396.35 392.359 3397.95 393.965C3399.56 395.571 3400.36 397.495 3400.36 399.737C3400.36 401.222 3399.98 402.586 3399.23 403.828C3398.5 405.071 3397.52 406.071 3396.27 406.828C3395.06 407.556 3393.7 407.919 3392.18 407.919Z" fill="black"/>
<path d="M3427.43 407.919C3425.19 407.919 3423.27 407.116 3421.66 405.51C3420.05 403.904 3419.25 401.98 3419.25 399.737C3419.25 397.495 3420.05 395.571 3421.66 393.965C3423.27 392.359 3425.19 391.556 3427.43 391.556C3429.67 391.556 3431.6 392.359 3433.2 393.965C3434.81 395.571 3435.61 397.495 3435.61 399.737C3435.61 401.222 3435.23 402.586 3434.48 403.828C3433.75 405.071 3432.77 406.071 3431.52 406.828C3430.31 407.556 3428.95 407.919 3427.43 407.919Z" fill="black"/>
<path d="M3462.68 407.919C3460.44 407.919 3458.52 407.116 3456.91 405.51C3455.3 403.904 3454.5 401.98 3454.5 399.737C3454.5 397.495 3455.3 395.571 3456.91 393.965C3458.52 392.359 3460.44 391.556 3462.68 391.556C3464.92 391.556 3466.85 392.359 3468.45 393.965C3470.06 395.571 3470.86 397.495 3470.86 399.737C3470.86 401.222 3470.48 402.586 3469.73 403.828C3469 405.071 3468.02 406.071 3466.77 406.828C3465.56 407.556 3464.2 407.919 3462.68 407.919Z" fill="black"/>
<path d="M3497.93 407.919C3495.69 407.919 3493.77 407.116 3492.16 405.51C3490.55 403.904 3489.75 401.98 3489.75 399.737C3489.75 397.495 3490.55 395.571 3492.16 393.965C3493.77 392.359 3495.69 391.556 3497.93 391.556C3500.17 391.556 3502.1 392.359 3503.7 393.965C3505.31 395.571 3506.11 397.495 3506.11 399.737C3506.11 401.222 3505.73 402.586 3504.98 403.828C3504.25 405.071 3503.27 406.071 3502.02 406.828C3500.81 407.556 3499.45 407.919 3497.93 407.919Z" fill="black"/>
<path d="M3533.18 407.919C3530.94 407.919 3529.02 407.116 3527.41 405.51C3525.8 403.904 3525 401.98 3525 399.737C3525 397.495 3525.8 395.571 3527.41 393.965C3529.02 392.359 3530.94 391.556 3533.18 391.556C3535.42 391.556 3537.35 392.359 3538.95 393.965C3540.56 395.571 3541.36 397.495 3541.36 399.737C3541.36 401.222 3540.98 402.586 3540.23 403.828C3539.5 405.071 3538.52 406.071 3537.27 406.828C3536.06 407.556 3534.7 407.919 3533.18 407.919Z" fill="black"/>
<path d="M3568.43 407.919C3566.19 407.919 3564.27 407.116 3562.66 405.51C3561.05 403.904 3560.25 401.98 3560.25 399.737C3560.25 397.495 3561.05 395.571 3562.66 393.965C3564.27 392.359 3566.19 391.556 3568.43 391.556C3570.67 391.556 3572.6 392.359 3574.2 393.965C3575.81 395.571 3576.61 397.495 3576.61 399.737C3576.61 401.222 3576.23 402.586 3575.48 403.828C3574.75 405.071 3573.77 406.071 3572.52 406.828C3571.31 407.556 3569.95 407.919 3568.43 407.919Z" fill="black"/>
<path d="M3603.68 407.919C3601.44 407.919 3599.52 407.116 3597.91 405.51C3596.3 403.904 3595.5 401.98 3595.5 399.737C3595.5 397.495 3596.3 395.571 3597.91 393.965C3599.52 392.359 3601.44 391.556 3603.68 391.556C3605.92 391.556 3607.85 392.359 3609.45 393.965C3611.06 395.571 3611.86 397.495 3611.86 399.737C3611.86 401.222 3611.48 402.586 3610.73 403.828C3610 405.071 3609.02 406.071 3607.77 406.828C3606.56 407.556 3605.2 407.919 3603.68 407.919Z" fill="black"/>
<path d="M3638.93 407.919C3636.69 407.919 3634.77 407.116 3633.16 405.51C3631.55 403.904 3630.75 401.98 3630.75 399.737C3630.75 397.495 3631.55 395.571 3633.16 393.965C3634.77 392.359 3636.69 391.556 3638.93 391.556C3641.17 391.556 3643.1 392.359 3644.7 393.965C3646.31 395.571 3647.11 397.495 3647.11 399.737C3647.11 401.222 3646.73 402.586 3645.98 403.828C3645.25 405.071 3644.27 406.071 3643.02 406.828C3641.81 407.556 3640.45 407.919 3638.93 407.919Z" fill="black"/>
<path d="M3674.18 407.919C3671.94 407.919 3670.02 407.116 3668.41 405.51C3666.8 403.904 3666 401.98 3666 399.737C3666 397.495 3666.8 395.571 3668.41 393.965C3670.02 392.359 3671.94 391.556 3674.18 391.556C3676.42 391.556 3678.35 392.359 3679.95 393.965C3681.56 395.571 3682.36 397.495 3682.36 399.737C3682.36 401.222 3681.98 402.586 3681.23 403.828C3680.5 405.071 3679.52 406.071 3678.27 406.828C3677.06 407.556 3675.7 407.919 3674.18 407.919Z" fill="black"/>
<path d="M3709.43 407.919C3707.19 407.919 3705.27 407.116 3703.66 405.51C3702.05 403.904 3701.25 401.98 3701.25 399.737C3701.25 397.495 3702.05 395.571 3703.66 393.965C3705.27 392.359 3707.19 391.556 3709.43 391.556C3711.67 391.556 3713.6 392.359 3715.2 393.965C3716.81 395.571 3717.61 397.495 3717.61 399.737C3717.61 401.222 3717.23 402.586 3716.48 403.828C3715.75 405.071 3714.77 406.071 3713.52 406.828C3712.31 407.556 3710.95 407.919 3709.43 407.919Z" fill="black"/>
<path d="M3744.68 407.919C3742.44 407.919 3740.52 407.116 3738.91 405.51C3737.3 403.904 3736.5 401.98 3736.5 399.737C3736.5 397.495 3737.3 395.571 3738.91 393.965C3740.52 392.359 3742.44 391.556 3744.68 391.556C3746.92 391.556 3748.85 392.359 3750.45 393.965C3752.06 395.571 3752.86 397.495 3752.86 399.737C3752.86 401.222 3752.48 402.586 3751.73 403.828C3751 405.071 3750.02 406.071 3748.77 406.828C3747.56 407.556 3746.2 407.919 3744.68 407.919Z" fill="black"/>
<path d="M3779.93 407.919C3777.69 407.919 3775.77 407.116 3774.16 405.51C3772.55 403.904 3771.75 401.98 3771.75 399.737C3771.75 397.495 3772.55 395.571 3774.16 393.965C3775.77 392.359 3777.69 391.556 3779.93 391.556C3782.17 391.556 3784.1 392.359 3785.7 393.965C3787.31 395.571 3788.11 397.495 3788.11 399.737C3788.11 401.222 3787.73 402.586 3786.98 403.828C3786.25 405.071 3785.27 406.071 3784.02 406.828C3782.81 407.556 3781.45 407.919 3779.93 407.919Z" fill="black"/>
<path d="M3815.18 407.919C3812.94 407.919 3811.02 407.116 3809.41 405.51C3807.8 403.904 3807 401.98 3807 399.737C3807 397.495 3807.8 395.571 3809.41 393.965C3811.02 392.359 3812.94 391.556 3815.18 391.556C3817.42 391.556 3819.35 392.359 3820.95 393.965C3822.56 395.571 3823.36 397.495 3823.36 399.737C3823.36 401.222 3822.98 402.586 3822.23 403.828C3821.5 405.071 3820.52 406.071 3819.27 406.828C3818.06 407.556 3816.7 407.919 3815.18 407.919Z" fill="black"/>
<path d="M3850.43 407.919C3848.19 407.919 3846.27 407.116 3844.66 405.51C3843.05 403.904 3842.25 401.98 3842.25 399.737C3842.25 397.495 3843.05 395.571 3844.66 393.965C3846.27 392.359 3848.19 391.556 3850.43 391.556C3852.67 391.556 3854.6 392.359 3856.2 393.965C3857.81 395.571 3858.61 397.495 3858.61 399.737C3858.61 401.222 3858.23 402.586 3857.48 403.828C3856.75 405.071 3855.77 406.071 3854.52 406.828C3853.31 407.556 3851.95 407.919 3850.43 407.919Z" fill="black"/>
<path d="M3885.68 407.919C3883.44 407.919 3881.52 407.116 3879.91 405.51C3878.3 403.904 3877.5 401.98 3877.5 399.737C3877.5 397.495 3878.3 395.571 3879.91 393.965C3881.52 392.359 3883.44 391.556 3885.68 391.556C3887.92 391.556 3889.85 392.359 3891.45 393.965C3893.06 395.571 3893.86 397.495 3893.86 399.737C3893.86 401.222 3893.48 402.586 3892.73 403.828C3892 405.071 3891.02 406.071 3889.77 406.828C3888.56 407.556 3887.2 407.919 3885.68 407.919Z" fill="black"/>
<path d="M3920.93 407.919C3918.69 407.919 3916.77 407.116 3915.16 405.51C3913.55 403.904 3912.75 401.98 3912.75 399.737C3912.75 397.495 3913.55 395.571 3915.16 393.965C3916.77 392.359 3918.69 391.556 3920.93 391.556C3923.17 391.556 3925.1 392.359 3926.7 393.965C3928.31 395.571 3929.11 397.495 3929.11 399.737C3929.11 401.222 3928.73 402.586 3927.98 403.828C3927.25 405.071 3926.27 406.071 3925.02 406.828C3923.81 407.556 3922.45 407.919 3920.93 407.919Z" fill="black"/>
<path d="M3956.18 407.919C3953.94 407.919 3952.02 407.116 3950.41 405.51C3948.8 403.904 3948 401.98 3948 399.737C3948 397.495 3948.8 395.571 3950.41 393.965C3952.02 392.359 3953.94 391.556 3956.18 391.556C3958.42 391.556 3960.35 392.359 3961.95 393.965C3963.56 395.571 3964.36 397.495 3964.36 399.737C3964.36 401.222 3963.98 402.586 3963.23 403.828C3962.5 405.071 3961.52 406.071 3960.27 406.828C3959.06 407.556 3957.7 407.919 3956.18 407.919Z" fill="black"/>
<path d="M3991.43 407.919C3989.19 407.919 3987.27 407.116 3985.66 405.51C3984.05 403.904 3983.25 401.98 3983.25 399.737C3983.25 397.495 3984.05 395.571 3985.66 393.965C3987.27 392.359 3989.19 391.556 3991.43 391.556C3993.67 391.556 3995.6 392.359 3997.2 393.965C3998.81 395.571 3999.61 397.495 3999.61 399.737C3999.61 401.222 3999.23 402.586 3998.48 403.828C3997.75 405.071 3996.77 406.071 3995.52 406.828C3994.31 407.556 3992.95 407.919 3991.43 407.919Z" fill="black"/>
<path d="M4026.68 407.919C4024.44 407.919 4022.52 407.116 4020.91 405.51C4019.3 403.904 4018.5 401.98 4018.5 399.737C4018.5 397.495 4019.3 395.571 4020.91 393.965C4022.52 392.359 4024.44 391.556 4026.68 391.556C4028.92 391.556 4030.85 392.359 4032.45 393.965C4034.06 395.571 4034.86 397.495 4034.86 399.737C4034.86 401.222 4034.48 402.586 4033.73 403.828C4033 405.071 4032.02 406.071 4030.77 406.828C4029.56 407.556 4028.2 407.919 4026.68 407.919Z" fill="black"/>
<path d="M4061.93 407.919C4059.69 407.919 4057.77 407.116 4056.16 405.51C4054.55 403.904 4053.75 401.98 4053.75 399.737C4053.75 397.495 4054.55 395.571 4056.16 393.965C4057.77 392.359 4059.69 391.556 4061.93 391.556C4064.17 391.556 4066.1 392.359 4067.7 393.965C4069.31 395.571 4070.11 397.495 4070.11 399.737C4070.11 401.222 4069.73 402.586 4068.98 403.828C4068.25 405.071 4067.27 406.071 4066.02 406.828C4064.81 407.556 4063.45 407.919 4061.93 407.919Z" fill="black"/>
<path d="M4097.18 407.919C4094.94 407.919 4093.02 407.116 4091.41 405.51C4089.8 403.904 4089 401.98 4089 399.737C4089 397.495 4089.8 395.571 4091.41 393.965C4093.02 392.359 4094.94 391.556 4097.18 391.556C4099.42 391.556 4101.35 392.359 4102.95 393.965C4104.56 395.571 4105.36 397.495 4105.36 399.737C4105.36 401.222 4104.98 402.586 4104.23 403.828C4103.5 405.071 4102.52 406.071 4101.27 406.828C4100.06 407.556 4098.7 407.919 4097.18 407.919Z" fill="black"/>
<path d="M4132.43 407.919C4130.19 407.919 4128.27 407.116 4126.66 405.51C4125.05 403.904 4124.25 401.98 4124.25 399.737C4124.25 397.495 4125.05 395.571 4126.66 393.965C4128.27 392.359 4130.19 391.556 4132.43 391.556C4134.67 391.556 4136.6 392.359 4138.2 393.965C4139.81 395.571 4140.61 397.495 4140.61 399.737C4140.61 401.222 4140.23 402.586 4139.48 403.828C4138.75 405.071 4137.77 406.071 4136.52 406.828C4135.31 407.556 4133.95 407.919 4132.43 407.919Z" fill="black"/>
<path d="M4779.68 407.919C4777.44 407.919 4775.52 407.116 4773.91 405.51C4772.3 403.904 4771.5 401.98 4771.5 399.737C4771.5 397.495 4772.3 395.571 4773.91 393.965C4775.52 392.359 4777.44 391.556 4779.68 391.556C4781.92 391.556 4783.85 392.359 4785.45 393.965C4787.06 395.571 4787.86 397.495 4787.86 399.737C4787.86 401.222 4787.48 402.586 4786.73 403.828C4786 405.071 4785.02 406.071 4783.77 406.828C4782.56 407.556 4781.2 407.919 4779.68 407.919Z" fill="black"/>
<path d="M4814.93 407.919C4812.69 407.919 4810.77 407.116 4809.16 405.51C4807.55 403.904 4806.75 401.98 4806.75 399.737C4806.75 397.495 4807.55 395.571 4809.16 393.965C4810.77 392.359 4812.69 391.556 4814.93 391.556C4817.17 391.556 4819.1 392.359 4820.7 393.965C4822.31 395.571 4823.11 397.495 4823.11 399.737C4823.11 401.222 4822.73 402.586 4821.98 403.828C4821.25 405.071 4820.27 406.071 4819.02 406.828C4817.81 407.556 4816.45 407.919 4814.93 407.919Z" fill="black"/>
<path d="M4850.18 407.919C4847.94 407.919 4846.02 407.116 4844.41 405.51C4842.8 403.904 4842 401.98 4842 399.737C4842 397.495 4842.8 395.571 4844.41 393.965C4846.02 392.359 4847.94 391.556 4850.18 391.556C4852.42 391.556 4854.35 392.359 4855.95 393.965C4857.56 395.571 4858.36 397.495 4858.36 399.737C4858.36 401.222 4857.98 402.586 4857.23 403.828C4856.5 405.071 4855.52 406.071 4854.27 406.828C4853.06 407.556 4851.7 407.919 4850.18 407.919Z" fill="black"/>
<path d="M4885.43 407.919C4883.19 407.919 4881.27 407.116 4879.66 405.51C4878.05 403.904 4877.25 401.98 4877.25 399.737C4877.25 397.495 4878.05 395.571 4879.66 393.965C4881.27 392.359 4883.19 391.556 4885.43 391.556C4887.67 391.556 4889.6 392.359 4891.2 393.965C4892.81 395.571 4893.61 397.495 4893.61 399.737C4893.61 401.222 4893.23 402.586 4892.48 403.828C4891.75 405.071 4890.77 406.071 4889.52 406.828C4888.31 407.556 4886.95 407.919 4885.43 407.919Z" fill="black"/>
<path d="M4920.68 407.919C4918.44 407.919 4916.52 407.116 4914.91 405.51C4913.3 403.904 4912.5 401.98 4912.5 399.737C4912.5 397.495 4913.3 395.571 4914.91 393.965C4916.52 392.359 4918.44 391.556 4920.68 391.556C4922.92 391.556 4924.85 392.359 4926.45 393.965C4928.06 395.571 4928.86 397.495 4928.86 399.737C4928.86 401.222 4928.48 402.586 4927.73 403.828C4927 405.071 4926.02 406.071 4924.77 406.828C4923.56 407.556 4922.2 407.919 4920.68 407.919Z" fill="black"/>
<path d="M4955.93 407.919C4953.69 407.919 4951.77 407.116 4950.16 405.51C4948.55 403.904 4947.75 401.98 4947.75 399.737C4947.75 397.495 4948.55 395.571 4950.16 393.965C4951.77 392.359 4953.69 391.556 4955.93 391.556C4958.17 391.556 4960.1 392.359 4961.7 393.965C4963.31 395.571 4964.11 397.495 4964.11 399.737C4964.11 401.222 4963.73 402.586 4962.98 403.828C4962.25 405.071 4961.27 406.071 4960.02 406.828C4958.81 407.556 4957.45 407.919 4955.93 407.919Z" fill="black"/>
<path d="M4991.18 407.919C4988.94 407.919 4987.02 407.116 4985.41 405.51C4983.8 403.904 4983 401.98 4983 399.737C4983 397.495 4983.8 395.571 4985.41 393.965C4987.02 392.359 4988.94 391.556 4991.18 391.556C4993.42 391.556 4995.35 392.359 4996.95 393.965C4998.56 395.571 4999.36 397.495 4999.36 399.737C4999.36 401.222 4998.98 402.586 4998.23 403.828C4997.5 405.071 4996.52 406.071 4995.27 406.828C4994.06 407.556 4992.7 407.919 4991.18 407.919Z" fill="black"/>
<path d="M5026.43 407.919C5024.19 407.919 5022.27 407.116 5020.66 405.51C5019.05 403.904 5018.25 401.98 5018.25 399.737C5018.25 397.495 5019.05 395.571 5020.66 393.965C5022.27 392.359 5024.19 391.556 5026.43 391.556C5028.67 391.556 5030.6 392.359 5032.2 393.965C5033.81 395.571 5034.61 397.495 5034.61 399.737C5034.61 401.222 5034.23 402.586 5033.48 403.828C5032.75 405.071 5031.77 406.071 5030.52 406.828C5029.31 407.556 5027.95 407.919 5026.43 407.919Z" fill="black"/>
<path d="M5061.68 407.919C5059.44 407.919 5057.52 407.116 5055.91 405.51C5054.3 403.904 5053.5 401.98 5053.5 399.737C5053.5 397.495 5054.3 395.571 5055.91 393.965C5057.52 392.359 5059.44 391.556 5061.68 391.556C5063.92 391.556 5065.85 392.359 5067.45 393.965C5069.06 395.571 5069.86 397.495 5069.86 399.737C5069.86 401.222 5069.48 402.586 5068.73 403.828C5068 405.071 5067.02 406.071 5065.77 406.828C5064.56 407.556 5063.2 407.919 5061.68 407.919Z" fill="black"/>
<path d="M5096.93 407.919C5094.69 407.919 5092.77 407.116 5091.16 405.51C5089.55 403.904 5088.75 401.98 5088.75 399.737C5088.75 397.495 5089.55 395.571 5091.16 393.965C5092.77 392.359 5094.69 391.556 5096.93 391.556C5099.17 391.556 5101.1 392.359 5102.7 393.965C5104.31 395.571 5105.11 397.495 5105.11 399.737C5105.11 401.222 5104.73 402.586 5103.98 403.828C5103.25 405.071 5102.27 406.071 5101.02 406.828C5099.81 407.556 5098.45 407.919 5096.93 407.919Z" fill="black"/>
<path d="M5132.18 407.919C5129.94 407.919 5128.02 407.116 5126.41 405.51C5124.8 403.904 5124 401.98 5124 399.737C5124 397.495 5124.8 395.571 5126.41 393.965C5128.02 392.359 5129.94 391.556 5132.18 391.556C5134.42 391.556 5136.35 392.359 5137.95 393.965C5139.56 395.571 5140.36 397.495 5140.36 399.737C5140.36 401.222 5139.98 402.586 5139.23 403.828C5138.5 405.071 5137.52 406.071 5136.27 406.828C5135.06 407.556 5133.7 407.919 5132.18 407.919Z" fill="black"/>
<path d="M5167.43 407.919C5165.19 407.919 5163.27 407.116 5161.66 405.51C5160.05 403.904 5159.25 401.98 5159.25 399.737C5159.25 397.495 5160.05 395.571 5161.66 393.965C5163.27 392.359 5165.19 391.556 5167.43 391.556C5169.67 391.556 5171.6 392.359 5173.2 393.965C5174.81 395.571 5175.61 397.495 5175.61 399.737C5175.61 401.222 5175.23 402.586 5174.48 403.828C5173.75 405.071 5172.77 406.071 5171.52 406.828C5170.31 407.556 5168.95 407.919 5167.43 407.919Z" fill="black"/>
<path d="M5202.68 407.919C5200.44 407.919 5198.52 407.116 5196.91 405.51C5195.3 403.904 5194.5 401.98 5194.5 399.737C5194.5 397.495 5195.3 395.571 5196.91 393.965C5198.52 392.359 5200.44 391.556 5202.68 391.556C5204.92 391.556 5206.85 392.359 5208.45 393.965C5210.06 395.571 5210.86 397.495 5210.86 399.737C5210.86 401.222 5210.48 402.586 5209.73 403.828C5209 405.071 5208.02 406.071 5206.77 406.828C5205.56 407.556 5204.2 407.919 5202.68 407.919Z" fill="black"/>
<path d="M5237.93 407.919C5235.69 407.919 5233.77 407.116 5232.16 405.51C5230.55 403.904 5229.75 401.98 5229.75 399.737C5229.75 397.495 5230.55 395.571 5232.16 393.965C5233.77 392.359 5235.69 391.556 5237.93 391.556C5240.17 391.556 5242.1 392.359 5243.7 393.965C5245.31 395.571 5246.11 397.495 5246.11 399.737C5246.11 401.222 5245.73 402.586 5244.98 403.828C5244.25 405.071 5243.27 406.071 5242.02 406.828C5240.81 407.556 5239.45 407.919 5237.93 407.919Z" fill="black"/>
<path d="M5273.18 407.919C5270.94 407.919 5269.02 407.116 5267.41 405.51C5265.8 403.904 5265 401.98 5265 399.737C5265 397.495 5265.8 395.571 5267.41 393.965C5269.02 392.359 5270.94 391.556 5273.18 391.556C5275.42 391.556 5277.35 392.359 5278.95 393.965C5280.56 395.571 5281.36 397.495 5281.36 399.737C5281.36 401.222 5280.98 402.586 5280.23 403.828C5279.5 405.071 5278.52 406.071 5277.27 406.828C5276.06 407.556 5274.7 407.919 5273.18 407.919Z" fill="black"/>
<path d="M5308.43 407.919C5306.19 407.919 5304.27 407.116 5302.66 405.51C5301.05 403.904 5300.25 401.98 5300.25 399.737C5300.25 397.495 5301.05 395.571 5302.66 393.965C5304.27 392.359 5306.19 391.556 5308.43 391.556C5310.67 391.556 5312.6 392.359 5314.2 393.965C5315.81 395.571 5316.61 397.495 5316.61 399.737C5316.61 401.222 5316.23 402.586 5315.48 403.828C5314.75 405.071 5313.77 406.071 5312.52 406.828C5311.31 407.556 5309.95 407.919 5308.43 407.919Z" fill="black"/>
<path d="M5343.68 407.919C5341.44 407.919 5339.52 407.116 5337.91 405.51C5336.3 403.904 5335.5 401.98 5335.5 399.737C5335.5 397.495 5336.3 395.571 5337.91 393.965C5339.52 392.359 5341.44 391.556 5343.68 391.556C5345.92 391.556 5347.85 392.359 5349.45 393.965C5351.06 395.571 5351.86 397.495 5351.86 399.737C5351.86 401.222 5351.48 402.586 5350.73 403.828C5350 405.071 5349.02 406.071 5347.77 406.828C5346.56 407.556 5345.2 407.919 5343.68 407.919Z" fill="black"/>
<path d="M5378.93 407.919C5376.69 407.919 5374.77 407.116 5373.16 405.51C5371.55 403.904 5370.75 401.98 5370.75 399.737C5370.75 397.495 5371.55 395.571 5373.16 393.965C5374.77 392.359 5376.69 391.556 5378.93 391.556C5381.17 391.556 5383.1 392.359 5384.7 393.965C5386.31 395.571 5387.11 397.495 5387.11 399.737C5387.11 401.222 5386.73 402.586 5385.98 403.828C5385.25 405.071 5384.27 406.071 5383.02 406.828C5381.81 407.556 5380.45 407.919 5378.93 407.919Z" fill="black"/>
<path d="M5414.18 407.919C5411.94 407.919 5410.02 407.116 5408.41 405.51C5406.8 403.904 5406 401.98 5406 399.737C5406 397.495 5406.8 395.571 5408.41 393.965C5410.02 392.359 5411.94 391.556 5414.18 391.556C5416.42 391.556 5418.35 392.359 5419.95 393.965C5421.56 395.571 5422.36 397.495 5422.36 399.737C5422.36 401.222 5421.98 402.586 5421.23 403.828C5420.5 405.071 5419.52 406.071 5418.27 406.828C5417.06 407.556 5415.7 407.919 5414.18 407.919Z" fill="black"/>
<path d="M5449.43 407.919C5447.19 407.919 5445.27 407.116 5443.66 405.51C5442.05 403.904 5441.25 401.98 5441.25 399.737C5441.25 397.495 5442.05 395.571 5443.66 393.965C5445.27 392.359 5447.19 391.556 5449.43 391.556C5451.67 391.556 5453.6 392.359 5455.2 393.965C5456.81 395.571 5457.61 397.495 5457.61 399.737C5457.61 401.222 5457.23 402.586 5456.48 403.828C5455.75 405.071 5454.77 406.071 5453.52 406.828C5452.31 407.556 5450.95 407.919 5449.43 407.919Z" fill="black"/>
<path d="M5484.68 407.919C5482.44 407.919 5480.52 407.116 5478.91 405.51C5477.3 403.904 5476.5 401.98 5476.5 399.737C5476.5 397.495 5477.3 395.571 5478.91 393.965C5480.52 392.359 5482.44 391.556 5484.68 391.556C5486.92 391.556 5488.85 392.359 5490.45 393.965C5492.06 395.571 5492.86 397.495 5492.86 399.737C5492.86 401.222 5492.48 402.586 5491.73 403.828C5491 405.071 5490.02 406.071 5488.77 406.828C5487.56 407.556 5486.2 407.919 5484.68 407.919Z" fill="black"/>
<path d="M5519.93 407.919C5517.69 407.919 5515.77 407.116 5514.16 405.51C5512.55 403.904 5511.75 401.98 5511.75 399.737C5511.75 397.495 5512.55 395.571 5514.16 393.965C5515.77 392.359 5517.69 391.556 5519.93 391.556C5522.17 391.556 5524.1 392.359 5525.7 393.965C5527.31 395.571 5528.11 397.495 5528.11 399.737C5528.11 401.222 5527.73 402.586 5526.98 403.828C5526.25 405.071 5525.27 406.071 5524.02 406.828C5522.81 407.556 5521.45 407.919 5519.93 407.919Z" fill="black"/>
<path d="M5555.18 407.919C5552.94 407.919 5551.02 407.116 5549.41 405.51C5547.8 403.904 5547 401.98 5547 399.737C5547 397.495 5547.8 395.571 5549.41 393.965C5551.02 392.359 5552.94 391.556 5555.18 391.556C5557.42 391.556 5559.35 392.359 5560.95 393.965C5562.56 395.571 5563.36 397.495 5563.36 399.737C5563.36 401.222 5562.98 402.586 5562.23 403.828C5561.5 405.071 5560.52 406.071 5559.27 406.828C5558.06 407.556 5556.7 407.919 5555.18 407.919Z" fill="black"/>
<path d="M5590.43 407.919C5588.19 407.919 5586.27 407.116 5584.66 405.51C5583.05 403.904 5582.25 401.98 5582.25 399.737C5582.25 397.495 5583.05 395.571 5584.66 393.965C5586.27 392.359 5588.19 391.556 5590.43 391.556C5592.67 391.556 5594.6 392.359 5596.2 393.965C5597.81 395.571 5598.61 397.495 5598.61 399.737C5598.61 401.222 5598.23 402.586 5597.48 403.828C5596.75 405.071 5595.77 406.071 5594.52 406.828C5593.31 407.556 5591.95 407.919 5590.43 407.919Z" fill="black"/>
<path d="M5625.68 407.919C5623.44 407.919 5621.52 407.116 5619.91 405.51C5618.3 403.904 5617.5 401.98 5617.5 399.737C5617.5 397.495 5618.3 395.571 5619.91 393.965C5621.52 392.359 5623.44 391.556 5625.68 391.556C5627.92 391.556 5629.85 392.359 5631.45 393.965C5633.06 395.571 5633.86 397.495 5633.86 399.737C5633.86 401.222 5633.48 402.586 5632.73 403.828C5632 405.071 5631.02 406.071 5629.77 406.828C5628.56 407.556 5627.2 407.919 5625.68 407.919Z" fill="black"/>
<path d="M5660.93 407.919C5658.69 407.919 5656.77 407.116 5655.16 405.51C5653.55 403.904 5652.75 401.98 5652.75 399.737C5652.75 397.495 5653.55 395.571 5655.16 393.965C5656.77 392.359 5658.69 391.556 5660.93 391.556C5663.17 391.556 5665.1 392.359 5666.7 393.965C5668.31 395.571 5669.11 397.495 5669.11 399.737C5669.11 401.222 5668.73 402.586 5667.98 403.828C5667.25 405.071 5666.27 406.071 5665.02 406.828C5663.81 407.556 5662.45 407.919 5660.93 407.919Z" fill="black"/>
<path d="M5696.18 407.919C5693.94 407.919 5692.02 407.116 5690.41 405.51C5688.8 403.904 5688 401.98 5688 399.737C5688 397.495 5688.8 395.571 5690.41 393.965C5692.02 392.359 5693.94 391.556 5696.18 391.556C5698.42 391.556 5700.35 392.359 5701.95 393.965C5703.56 395.571 5704.36 397.495 5704.36 399.737C5704.36 401.222 5703.98 402.586 5703.23 403.828C5702.5 405.071 5701.52 406.071 5700.27 406.828C5699.06 407.556 5697.7 407.919 5696.18 407.919Z" fill="black"/>
<path d="M5731.43 407.919C5729.19 407.919 5727.27 407.116 5725.66 405.51C5724.05 403.904 5723.25 401.98 5723.25 399.737C5723.25 397.495 5724.05 395.571 5725.66 393.965C5727.27 392.359 5729.19 391.556 5731.43 391.556C5733.67 391.556 5735.6 392.359 5737.2 393.965C5738.81 395.571 5739.61 397.495 5739.61 399.737C5739.61 401.222 5739.23 402.586 5738.48 403.828C5737.75 405.071 5736.77 406.071 5735.52 406.828C5734.31 407.556 5732.95 407.919 5731.43 407.919Z" fill="black"/>
<path d="M5766.68 407.919C5764.44 407.919 5762.52 407.116 5760.91 405.51C5759.3 403.904 5758.5 401.98 5758.5 399.737C5758.5 397.495 5759.3 395.571 5760.91 393.965C5762.52 392.359 5764.44 391.556 5766.68 391.556C5768.92 391.556 5770.85 392.359 5772.45 393.965C5774.06 395.571 5774.86 397.495 5774.86 399.737C5774.86 401.222 5774.48 402.586 5773.73 403.828C5773 405.071 5772.02 406.071 5770.77 406.828C5769.56 407.556 5768.2 407.919 5766.68 407.919Z" fill="black"/>
<path d="M5801.93 407.919C5799.69 407.919 5797.77 407.116 5796.16 405.51C5794.55 403.904 5793.75 401.98 5793.75 399.737C5793.75 397.495 5794.55 395.571 5796.16 393.965C5797.77 392.359 5799.69 391.556 5801.93 391.556C5804.17 391.556 5806.1 392.359 5807.7 393.965C5809.31 395.571 5810.11 397.495 5810.11 399.737C5810.11 401.222 5809.73 402.586 5808.98 403.828C5808.25 405.071 5807.27 406.071 5806.02 406.828C5804.81 407.556 5803.45 407.919 5801.93 407.919Z" fill="black"/>
<path d="M5837.18 407.919C5834.94 407.919 5833.02 407.116 5831.41 405.51C5829.8 403.904 5829 401.98 5829 399.737C5829 397.495 5829.8 395.571 5831.41 393.965C5833.02 392.359 5834.94 391.556 5837.18 391.556C5839.42 391.556 5841.35 392.359 5842.95 393.965C5844.56 395.571 5845.36 397.495 5845.36 399.737C5845.36 401.222 5844.98 402.586 5844.23 403.828C5843.5 405.071 5842.52 406.071 5841.27 406.828C5840.06 407.556 5838.7 407.919 5837.18 407.919Z" fill="black"/>
<path d="M4154.92 17.408H4144.43L4134.57 6.4H4134.19L4124.33 17.408H4114.47L4130.09 0H4138.54L4154.92 17.408Z" fill="black"/>
<path d="M4401.55 121.465C4394.7 121.465 4388.86 119.601 4384.05 115.874C4379.23 112.116 4375.55 106.677 4373 99.5556C4370.45 92.4041 4369.18 83.7678 4369.18 73.6466C4369.18 63.5859 4370.45 54.995 4373 47.8738C4375.58 40.7223 4379.27 35.2678 4384.09 31.5102C4388.94 27.7223 4394.76 25.8284 4401.55 25.8284C4408.33 25.8284 4414.14 27.7223 4418.95 31.5102C4423.8 35.2678 4427.5 40.7223 4430.05 47.8738C4432.62 54.995 4433.91 63.5859 4433.91 73.6466C4433.91 83.7678 4432.64 92.4041 4430.09 99.5556C4427.55 106.677 4423.86 112.116 4419.05 115.874C4414.23 119.601 4408.39 121.465 4401.55 121.465ZM4401.55 111.465C4408.33 111.465 4413.61 108.192 4417.36 101.647C4421.12 95.1011 4423 85.7678 4423 73.6466C4423 65.5859 4422.14 58.7223 4420.41 53.0556C4418.71 47.389 4416.26 43.0708 4413.05 40.1011C4409.86 37.1314 4406.03 35.6466 4401.55 35.6466C4394.82 35.6466 4389.56 38.9647 4385.77 45.6011C4381.99 52.2072 4380.09 61.5556 4380.09 73.6466C4380.09 81.7072 4380.94 88.5556 4382.64 94.192C4384.33 99.8284 4386.77 104.116 4389.95 107.056C4393.17 109.995 4397.03 111.465 4401.55 111.465Z" fill="black"/>
<path d="M4531.36 73.6466C4531.36 83.4647 4529.59 91.9496 4526.05 99.1011C4522.5 106.253 4517.64 111.768 4511.45 115.647C4505.27 119.525 4498.21 121.465 4490.27 121.465C4482.33 121.465 4475.27 119.525 4469.09 115.647C4462.91 111.768 4458.05 106.253 4454.5 99.1011C4450.95 91.9496 4449.18 83.4647 4449.18 73.6466C4449.18 63.8284 4450.95 55.3435 4454.5 48.192C4458.05 41.0405 4462.91 35.5253 4469.09 31.6466C4475.27 27.7678 4482.33 25.8284 4490.27 25.8284C4498.21 25.8284 4505.27 27.7678 4511.45 31.6466C4517.64 35.5253 4522.5 41.0405 4526.05 48.192C4529.59 55.3435 4531.36 63.8284 4531.36 73.6466ZM4520.45 73.6466C4520.45 65.5859 4519.11 58.7829 4516.41 53.2375C4513.74 47.692 4510.12 43.495 4505.55 40.6466C4501 37.7981 4495.91 36.3738 4490.27 36.3738C4484.64 36.3738 4479.53 37.7981 4474.95 40.6466C4470.41 43.495 4466.79 47.692 4464.09 53.2375C4461.42 58.7829 4460.09 65.5859 4460.09 73.6466C4460.09 81.7072 4461.42 88.5102 4464.09 94.0556C4466.79 99.6011 4470.41 103.798 4474.95 106.647C4479.53 109.495 4484.64 110.919 4490.27 110.919C4495.91 110.919 4501 109.495 4505.55 106.647C4510.12 103.798 4513.74 99.6011 4516.41 94.0556C4519.11 88.5102 4520.45 81.7072 4520.45 73.6466Z" fill="black"/>
<path d="M4579.05 121.465C4572.2 121.465 4566.36 119.601 4561.55 115.874C4556.73 112.116 4553.05 106.677 4550.5 99.5556C4547.95 92.4041 4546.68 83.7678 4546.68 73.6466C4546.68 63.5859 4547.95 54.995 4550.5 47.8738C4553.08 40.7223 4556.77 35.2678 4561.59 31.5102C4566.44 27.7223 4572.26 25.8284 4579.05 25.8284C4585.83 25.8284 4591.64 27.7223 4596.45 31.5102C4601.3 35.2678 4605 40.7223 4607.55 47.8738C4610.12 54.995 4611.41 63.5859 4611.41 73.6466C4611.41 83.7678 4610.14 92.4041 4607.59 99.5556C4605.05 106.677 4601.36 112.116 4596.55 115.874C4591.73 119.601 4585.89 121.465 4579.05 121.465ZM4579.05 111.465C4585.83 111.465 4591.11 108.192 4594.86 101.647C4598.62 95.1011 4600.5 85.7678 4600.5 73.6466C4600.5 65.5859 4599.64 58.7223 4597.91 53.0556C4596.21 47.389 4593.76 43.0708 4590.55 40.1011C4587.36 37.1314 4583.53 35.6466 4579.05 35.6466C4572.32 35.6466 4567.06 38.9647 4563.27 45.6011C4559.49 52.2072 4557.59 61.5556 4557.59 73.6466C4557.59 81.7072 4558.44 88.5556 4560.14 94.192C4561.83 99.8284 4564.27 104.116 4567.45 107.056C4570.67 109.995 4574.53 111.465 4579.05 111.465Z" fill="black"/>
<path d="M4070.28 169.296C4073.61 169.723 4077.53 170.32 4082.06 171.088C4086.58 171.856 4091.36 172.752 4096.39 173.776C4101.51 174.8 4106.59 175.909 4111.63 177.104C4116.75 178.299 4121.52 179.493 4125.96 180.688C4130.4 181.883 4134.24 183.035 4137.48 184.144L4133.39 194C4130.23 192.891 4126.47 191.739 4122.12 190.544C4117.77 189.264 4113.12 188.027 4108.17 186.832C4103.31 185.637 4098.31 184.528 4093.19 183.504C4088.16 182.395 4083.34 181.456 4078.73 180.688C4074.21 179.835 4070.15 179.195 4066.57 178.768L4070.28 169.296ZM4064.52 203.088C4068.87 203.856 4073.91 204.795 4079.63 205.904C4085.34 207.013 4091.23 208.293 4097.29 209.744C4103.43 211.109 4109.28 212.56 4114.83 214.096C4120.37 215.547 4125.11 216.997 4129.03 218.448L4124.94 228.304C4121.27 226.853 4116.7 225.36 4111.24 223.824C4105.87 222.288 4100.15 220.795 4094.09 219.344C4088.03 217.893 4082.06 216.613 4076.17 215.504C4070.37 214.309 4065.2 213.371 4060.68 212.688L4064.52 203.088ZM4057.48 240.336C4061.83 241.019 4066.65 241.915 4071.95 243.024C4077.32 244.048 4082.87 245.243 4088.59 246.608C4094.3 247.888 4099.93 249.253 4105.48 250.704C4111.03 252.155 4116.23 253.648 4121.1 255.184C4125.96 256.635 4130.14 258.085 4133.64 259.536L4129.29 269.392C4125.88 267.941 4121.74 266.448 4116.87 264.912C4112.01 263.291 4106.76 261.755 4101.13 260.304C4095.58 258.768 4089.91 257.36 4084.11 256.08C4078.39 254.8 4072.88 253.648 4067.59 252.624C4062.39 251.6 4057.69 250.747 4053.51 250.064L4057.48 240.336Z" fill="black"/>
<path d="M4261.55 203.984C4264.11 203.984 4266.41 204.581 4268.46 205.776C4270.51 206.971 4272.13 208.592 4273.32 210.64C4274.52 212.688 4275.11 214.992 4275.11 217.552C4275.11 220.027 4274.52 222.331 4273.32 224.464C4272.13 226.512 4270.51 228.133 4268.46 229.328C4266.41 230.523 4264.11 231.12 4261.55 231.12C4259.07 231.12 4256.77 230.523 4254.63 229.328C4252.59 228.133 4250.96 226.512 4249.77 224.464C4248.57 222.331 4247.98 220.027 4247.98 217.552C4247.98 214.992 4248.57 212.688 4249.77 210.64C4250.96 208.592 4252.59 206.971 4254.63 205.776C4256.77 204.581 4259.07 203.984 4261.55 203.984Z" fill="black"/>
<path d="M4386.38 234.96C4390.05 234.96 4393.33 235.856 4396.23 237.648C4399.13 239.355 4401.48 241.701 4403.27 244.688C4405.07 247.589 4405.96 250.832 4405.96 254.416C4405.96 258 4405.07 261.285 4403.27 264.272C4401.48 267.173 4399.13 269.52 4396.23 271.312C4393.33 273.104 4390.05 274 4386.38 274C4382.79 274 4379.51 273.104 4376.52 271.312C4373.62 269.52 4371.27 267.173 4369.48 264.272C4367.77 261.285 4366.92 258 4366.92 254.416C4366.92 250.832 4367.77 247.589 4369.48 244.688C4371.27 241.701 4373.66 239.355 4376.65 237.648C4379.64 235.856 4382.88 234.96 4386.38 234.96ZM4386.38 267.472C4390.05 267.472 4393.12 266.235 4395.59 263.76C4398.15 261.2 4399.43 258.085 4399.43 254.416C4399.43 252.112 4398.84 249.979 4397.64 248.016C4396.53 246.053 4395 244.475 4393.03 243.28C4391.07 242.085 4388.85 241.488 4386.38 241.488C4384.07 241.488 4381.94 242.085 4379.98 243.28C4378.01 244.475 4376.44 246.053 4375.24 248.016C4374.05 249.979 4373.45 252.112 4373.45 254.416C4373.45 256.805 4374.05 259.024 4375.24 261.072C4376.44 263.035 4378.01 264.613 4379.98 265.808C4381.94 266.917 4384.07 267.472 4386.38 267.472Z" fill="black"/>
<path d="M4553.55 203.984C4556.11 203.984 4558.41 204.581 4560.46 205.776C4562.51 206.971 4564.13 208.592 4565.32 210.64C4566.52 212.688 4567.11 214.992 4567.11 217.552C4567.11 220.027 4566.52 222.331 4565.32 224.464C4564.13 226.512 4562.51 228.133 4560.46 229.328C4558.41 230.523 4556.11 231.12 4553.55 231.12C4551.07 231.12 4548.77 230.523 4546.63 229.328C4544.59 228.133 4542.96 226.512 4541.77 224.464C4540.57 222.331 4539.98 220.027 4539.98 217.552C4539.98 214.992 4540.57 212.688 4541.77 210.64C4542.96 208.592 4544.59 206.971 4546.63 205.776C4548.77 204.581 4551.07 203.984 4553.55 203.984Z" fill="black"/>
<path d="M4690.28 169.296C4693.61 169.723 4697.53 170.32 4702.06 171.088C4706.58 171.856 4711.36 172.752 4716.39 173.776C4721.51 174.8 4726.59 175.909 4731.63 177.104C4736.75 178.299 4741.52 179.493 4745.96 180.688C4750.4 181.883 4754.24 183.035 4757.48 184.144L4753.39 194C4750.23 192.891 4746.47 191.739 4742.12 190.544C4737.77 189.264 4733.12 188.027 4728.17 186.832C4723.31 185.637 4718.31 184.528 4713.19 183.504C4708.16 182.395 4703.34 181.456 4698.73 180.688C4694.21 179.835 4690.15 179.195 4686.57 178.768L4690.28 169.296ZM4684.52 203.088C4688.87 203.856 4693.91 204.795 4699.63 205.904C4705.34 207.013 4711.23 208.293 4717.29 209.744C4723.43 211.109 4729.28 212.56 4734.83 214.096C4740.37 215.547 4745.11 216.997 4749.03 218.448L4744.94 228.304C4741.27 226.853 4736.7 225.36 4731.24 223.824C4725.87 222.288 4720.15 220.795 4714.09 219.344C4708.03 217.893 4702.06 216.613 4696.17 215.504C4690.37 214.309 4685.2 213.371 4680.68 212.688L4684.52 203.088ZM4677.48 240.336C4681.83 241.019 4686.65 241.915 4691.95 243.024C4697.32 244.048 4702.87 245.243 4708.59 246.608C4714.3 247.888 4719.93 249.253 4725.48 250.704C4731.03 252.155 4736.23 253.648 4741.1 255.184C4745.96 256.635 4750.14 258.085 4753.64 259.536L4749.29 269.392C4745.88 267.941 4741.74 266.448 4736.87 264.912C4732.01 263.291 4726.76 261.755 4721.13 260.304C4715.58 258.768 4709.91 257.36 4704.11 256.08C4698.39 254.8 4692.88 253.648 4687.59 252.624C4682.39 251.6 4677.7 250.747 4673.51 250.064L4677.48 240.336Z" fill="black"/>
<path d="M4200.09 413.647C4193.48 413.647 4187.27 412.404 4181.45 409.919C4175.67 407.434 4170.56 403.995 4166.14 399.601C4161.74 395.177 4158.29 390.071 4155.77 384.283C4153.29 378.495 4152.06 372.283 4152.09 365.647C4152.12 359.01 4153.38 352.798 4155.86 347.01C4158.38 341.222 4161.83 336.131 4166.23 331.737C4170.62 327.313 4175.71 323.859 4181.5 321.374C4187.29 318.889 4193.48 317.647 4200.09 317.647C4206.73 317.647 4212.94 318.889 4218.73 321.374C4224.55 323.859 4229.64 327.313 4234 331.737C4238.39 336.131 4241.83 341.222 4244.32 347.01C4246.8 352.798 4248.06 359.01 4248.09 365.647C4248.12 372.283 4246.89 378.495 4244.41 384.283C4241.92 390.071 4238.48 395.177 4234.09 399.601C4229.7 403.995 4224.59 407.434 4218.77 409.919C4212.95 412.404 4206.73 413.647 4200.09 413.647ZM4200.09 403.101C4205.27 403.101 4210.14 402.131 4214.68 400.192C4219.23 398.253 4223.21 395.571 4226.64 392.147C4230.06 388.722 4232.74 384.753 4234.68 380.237C4236.62 375.692 4237.58 370.844 4237.55 365.692C4237.52 360.51 4236.53 355.647 4234.59 351.101C4232.65 346.556 4229.97 342.571 4226.55 339.147C4223.12 335.722 4219.15 333.04 4214.64 331.101C4210.12 329.162 4205.27 328.192 4200.09 328.192C4194.94 328.192 4190.11 329.162 4185.59 331.101C4181.08 333.04 4177.11 335.737 4173.68 339.192C4170.26 342.616 4167.56 346.601 4165.59 351.147C4163.65 355.662 4162.67 360.51 4162.64 365.692C4162.61 370.813 4163.56 375.647 4165.5 380.192C4167.44 384.707 4170.12 388.677 4173.55 392.101C4177 395.525 4180.98 398.222 4185.5 400.192C4190.05 402.131 4194.91 403.101 4200.09 403.101Z" fill="black"/>
<path d="M4270.43 412.919C4268.19 412.919 4266.27 412.116 4264.66 410.51C4263.05 408.904 4262.25 406.98 4262.25 404.737C4262.25 402.495 4263.05 400.571 4264.66 398.965C4266.27 397.359 4268.19 396.556 4270.43 396.556C4272.67 396.556 4274.6 397.359 4276.2 398.965C4277.81 400.571 4278.61 402.495 4278.61 404.737C4278.61 406.222 4278.23 407.586 4277.48 408.828C4276.75 410.071 4275.77 411.071 4274.52 411.828C4273.31 412.556 4271.95 412.919 4270.43 412.919Z" fill="black"/>
<path d="M4305.68 412.919C4303.44 412.919 4301.52 412.116 4299.91 410.51C4298.3 408.904 4297.5 406.98 4297.5 404.737C4297.5 402.495 4298.3 400.571 4299.91 398.965C4301.52 397.359 4303.44 396.556 4305.68 396.556C4307.92 396.556 4309.85 397.359 4311.45 398.965C4313.06 400.571 4313.86 402.495 4313.86 404.737C4313.86 406.222 4313.48 407.586 4312.73 408.828C4312 410.071 4311.02 411.071 4309.77 411.828C4308.56 412.556 4307.2 412.919 4305.68 412.919Z" fill="black"/>
<path d="M4340.93 412.919C4338.69 412.919 4336.77 412.116 4335.16 410.51C4333.55 408.904 4332.75 406.98 4332.75 404.737C4332.75 402.495 4333.55 400.571 4335.16 398.965C4336.77 397.359 4338.69 396.556 4340.93 396.556C4343.17 396.556 4345.1 397.359 4346.7 398.965C4348.31 400.571 4349.11 402.495 4349.11 404.737C4349.11 406.222 4348.73 407.586 4347.98 408.828C4347.25 410.071 4346.27 411.071 4345.02 411.828C4343.81 412.556 4342.45 412.919 4340.93 412.919Z" fill="black"/>
<path d="M4376.18 412.919C4373.94 412.919 4372.02 412.116 4370.41 410.51C4368.8 408.904 4368 406.98 4368 404.737C4368 402.495 4368.8 400.571 4370.41 398.965C4372.02 397.359 4373.94 396.556 4376.18 396.556C4378.42 396.556 4380.35 397.359 4381.95 398.965C4383.56 400.571 4384.36 402.495 4384.36 404.737C4384.36 406.222 4383.98 407.586 4383.23 408.828C4382.5 410.071 4381.52 411.071 4380.27 411.828C4379.06 412.556 4377.7 412.919 4376.18 412.919Z" fill="black"/>
<path d="M4411.43 412.919C4409.19 412.919 4407.27 412.116 4405.66 410.51C4404.05 408.904 4403.25 406.98 4403.25 404.737C4403.25 402.495 4404.05 400.571 4405.66 398.965C4407.27 397.359 4409.19 396.556 4411.43 396.556C4413.67 396.556 4415.6 397.359 4417.2 398.965C4418.81 400.571 4419.61 402.495 4419.61 404.737C4419.61 406.222 4419.23 407.586 4418.48 408.828C4417.75 410.071 4416.77 411.071 4415.52 411.828C4414.31 412.556 4412.95 412.919 4411.43 412.919Z" fill="black"/>
<path d="M4446.68 412.919C4444.44 412.919 4442.52 412.116 4440.91 410.51C4439.3 408.904 4438.5 406.98 4438.5 404.737C4438.5 402.495 4439.3 400.571 4440.91 398.965C4442.52 397.359 4444.44 396.556 4446.68 396.556C4448.92 396.556 4450.85 397.359 4452.45 398.965C4454.06 400.571 4454.86 402.495 4454.86 404.737C4454.86 406.222 4454.48 407.586 4453.73 408.828C4453 410.071 4452.02 411.071 4450.77 411.828C4449.56 412.556 4448.2 412.919 4446.68 412.919Z" fill="black"/>
<path d="M4481.93 412.919C4479.69 412.919 4477.77 412.116 4476.16 410.51C4474.55 408.904 4473.75 406.98 4473.75 404.737C4473.75 402.495 4474.55 400.571 4476.16 398.965C4477.77 397.359 4479.69 396.556 4481.93 396.556C4484.17 396.556 4486.1 397.359 4487.7 398.965C4489.31 400.571 4490.11 402.495 4490.11 404.737C4490.11 406.222 4489.73 407.586 4488.98 408.828C4488.25 410.071 4487.27 411.071 4486.02 411.828C4484.81 412.556 4483.45 412.919 4481.93 412.919Z" fill="black"/>
<path d="M4517.18 412.919C4514.94 412.919 4513.02 412.116 4511.41 410.51C4509.8 408.904 4509 406.98 4509 404.737C4509 402.495 4509.8 400.571 4511.41 398.965C4513.02 397.359 4514.94 396.556 4517.18 396.556C4519.42 396.556 4521.35 397.359 4522.95 398.965C4524.56 400.571 4525.36 402.495 4525.36 404.737C4525.36 406.222 4524.98 407.586 4524.23 408.828C4523.5 410.071 4522.52 411.071 4521.27 411.828C4520.06 412.556 4518.7 412.919 4517.18 412.919Z" fill="black"/>
<path d="M4552.43 412.919C4550.19 412.919 4548.27 412.116 4546.66 410.51C4545.05 408.904 4544.25 406.98 4544.25 404.737C4544.25 402.495 4545.05 400.571 4546.66 398.965C4548.27 397.359 4550.19 396.556 4552.43 396.556C4554.67 396.556 4556.6 397.359 4558.2 398.965C4559.81 400.571 4560.61 402.495 4560.61 404.737C4560.61 406.222 4560.23 407.586 4559.48 408.828C4558.75 410.071 4557.77 411.071 4556.52 411.828C4555.31 412.556 4553.95 412.919 4552.43 412.919Z" fill="black"/>
<path d="M4587.68 412.919C4585.44 412.919 4583.52 412.116 4581.91 410.51C4580.3 408.904 4579.5 406.98 4579.5 404.737C4579.5 402.495 4580.3 400.571 4581.91 398.965C4583.52 397.359 4585.44 396.556 4587.68 396.556C4589.92 396.556 4591.85 397.359 4593.45 398.965C4595.06 400.571 4595.86 402.495 4595.86 404.737C4595.86 406.222 4595.48 407.586 4594.73 408.828C4594 410.071 4593.02 411.071 4591.77 411.828C4590.56 412.556 4589.2 412.919 4587.68 412.919Z" fill="black"/>
<path d="M4622.93 412.919C4620.69 412.919 4618.77 412.116 4617.16 410.51C4615.55 408.904 4614.75 406.98 4614.75 404.737C4614.75 402.495 4615.55 400.571 4617.16 398.965C4618.77 397.359 4620.69 396.556 4622.93 396.556C4625.17 396.556 4627.1 397.359 4628.7 398.965C4630.31 400.571 4631.11 402.495 4631.11 404.737C4631.11 406.222 4630.73 407.586 4629.98 408.828C4629.25 410.071 4628.27 411.071 4627.02 411.828C4625.81 412.556 4624.45 412.919 4622.93 412.919Z" fill="black"/>
<path d="M4699.09 413.647C4692.48 413.647 4686.27 412.404 4680.45 409.919C4674.67 407.434 4669.56 403.995 4665.14 399.601C4660.74 395.177 4657.29 390.071 4654.77 384.283C4652.29 378.495 4651.06 372.283 4651.09 365.647C4651.12 359.01 4652.38 352.798 4654.86 347.01C4657.38 341.222 4660.83 336.131 4665.23 331.737C4669.62 327.313 4674.71 323.859 4680.5 321.374C4686.29 318.889 4692.48 317.647 4699.09 317.647C4705.73 317.647 4711.94 318.889 4717.73 321.374C4723.55 323.859 4728.64 327.313 4733 331.737C4737.39 336.131 4740.83 341.222 4743.32 347.01C4745.8 352.798 4747.06 359.01 4747.09 365.647C4747.12 372.283 4745.89 378.495 4743.41 384.283C4740.92 390.071 4737.48 395.177 4733.09 399.601C4728.7 403.995 4723.59 407.434 4717.77 409.919C4711.95 412.404 4705.73 413.647 4699.09 413.647ZM4699.09 403.101C4704.27 403.101 4709.14 402.131 4713.68 400.192C4718.23 398.253 4722.21 395.571 4725.64 392.147C4729.06 388.722 4731.74 384.753 4733.68 380.237C4735.62 375.692 4736.58 370.844 4736.55 365.692C4736.52 360.51 4735.53 355.647 4733.59 351.101C4731.65 346.556 4728.97 342.571 4725.55 339.147C4722.12 335.722 4718.15 333.04 4713.64 331.101C4709.12 329.162 4704.27 328.192 4699.09 328.192C4693.94 328.192 4689.11 329.162 4684.59 331.101C4680.08 333.04 4676.11 335.737 4672.68 339.192C4669.26 342.616 4666.56 346.601 4664.59 351.147C4662.65 355.662 4661.67 360.51 4661.64 365.692C4661.61 370.813 4662.56 375.647 4664.5 380.192C4666.44 384.707 4669.12 388.677 4672.55 392.101C4676 395.525 4679.98 398.222 4684.5 400.192C4689.05 402.131 4693.91 403.101 4699.09 403.101Z" fill="black"/>
</svg>
