<svg width="441" height="2139" viewBox="0 0 441 2139" fill="none" xmlns="http://www.w3.org/2000/svg">
<path d="M30.8582 93.0909H19.04L53.2218 0H64.8582L99.04 93.0909H87.2218L59.4036 14.7273H58.6764L30.8582 93.0909ZM35.2218 56.7273H82.8582V66.7273H35.2218V56.7273Z" fill="black"/>
<path d="M160.267 93.0909V103.091H102.085V93.0909H160.267Z" fill="black"/>
<path d="M218.142 93.0909V103.091H159.96V93.0909H218.142Z" fill="black"/>
<path d="M276.017 93.0909V103.091H217.835V93.0909H276.017Z" fill="black"/>
<path d="M333.892 93.0909V103.091H275.71V93.0909H333.892Z" fill="black"/>
<path d="M348.858 93.0909H337.04L371.222 0H382.858L417.04 93.0909H405.222L377.404 14.7273H376.676L348.858 93.0909ZM353.222 56.7273H400.858V66.7273H353.222V56.7273Z" fill="black"/>
<path d="M14.1818 116V269.091H5.09091V116H14.1818Z" fill="black"/>
<path d="M94.6023 176.883C97.1623 176.883 99.4663 177.48 101.514 178.675C103.562 179.87 105.184 181.491 106.378 183.539C107.573 185.587 108.17 187.891 108.17 190.451C108.17 192.926 107.573 195.23 106.378 197.363C105.184 199.411 103.562 201.032 101.514 202.227C99.4663 203.422 97.1623 204.019 94.6023 204.019C92.1276 204.019 89.8236 203.422 87.6903 202.227C85.6423 201.032 84.0209 199.411 82.8263 197.363C81.6316 195.23 81.0343 192.926 81.0343 190.451C81.0343 187.891 81.6316 185.587 82.8263 183.539C84.0209 181.491 85.6423 179.87 87.6903 178.675C89.8236 177.48 92.1276 176.883 94.6023 176.883Z" fill="black"/>
<path d="M212.874 158.451H221.962V177.139C221.962 183.198 220.981 188.744 219.018 193.779C217.056 198.814 214.24 203.251 210.57 207.091C206.986 210.846 202.762 214.088 197.898 216.819C193.12 219.55 187.914 221.64 182.282 223.091L177.162 214.515C182.282 213.32 186.976 211.614 191.242 209.395C195.594 207.091 199.392 204.36 202.634 201.203C205.877 198.046 208.394 194.462 210.186 190.451C211.978 186.355 212.874 181.918 212.874 177.139V158.451ZM214.282 158.451H223.37V177.139C223.37 181.918 224.266 186.355 226.058 190.451C227.85 194.462 230.368 198.046 233.61 201.203C236.853 204.36 240.608 207.091 244.874 209.395C249.226 211.614 253.962 213.32 259.082 214.515L253.962 223.091C248.33 221.64 243.082 219.55 238.218 216.819C233.44 214.088 229.258 210.846 225.674 207.091C222.09 203.251 219.274 198.814 217.226 193.779C215.264 188.744 214.282 183.198 214.282 177.139V158.451Z" fill="black"/>
<path d="M340.352 176.883C342.912 176.883 345.216 177.48 347.264 178.675C349.312 179.87 350.934 181.491 352.128 183.539C353.323 185.587 353.92 187.891 353.92 190.451C353.92 192.926 353.323 195.23 352.128 197.363C350.934 199.411 349.312 201.032 347.264 202.227C345.216 203.422 342.912 204.019 340.352 204.019C337.878 204.019 335.574 203.422 333.44 202.227C331.392 201.032 329.771 199.411 328.576 197.363C327.382 195.23 326.784 192.926 326.784 190.451C326.784 187.891 327.382 185.587 328.576 183.539C329.771 181.491 331.392 179.87 333.44 178.675C335.574 177.48 337.878 176.883 340.352 176.883Z" fill="black"/>
<path d="M429.807 116V269.091H420.716V116H429.807Z" fill="black"/>
<path d="M14.1818 262V415.091H5.09091V262H14.1818Z" fill="black"/>
<path d="M51.0823 334.019C53.0449 333.592 55.0076 333.123 56.9703 332.611C59.0183 332.014 61.0663 331.416 63.1143 330.819C65.3329 330.136 68.2343 329.198 71.8183 328.003C75.4023 326.808 79.2849 325.656 83.4663 324.547C87.6476 323.438 91.8716 322.456 96.1383 321.603C100.49 320.75 104.544 320.323 108.298 320.323C114.357 320.323 119.733 321.475 124.426 323.779C129.12 326.083 132.789 329.368 135.434 333.635C138.165 337.816 139.53 342.851 139.53 348.739C139.53 354.883 138.122 360.302 135.306 364.995C132.49 369.603 128.48 373.528 123.274 376.771C118.154 380.014 112.01 382.574 104.842 384.451C97.7596 386.328 89.9089 387.523 81.2903 388.035L77.1943 378.179C84.1063 377.923 90.6769 377.24 96.9063 376.131C103.136 374.936 108.682 373.187 113.546 370.883C118.41 368.579 122.208 365.592 124.938 361.923C127.754 358.168 129.162 353.688 129.162 348.483C129.162 344.814 128.266 341.571 126.474 338.755C124.682 335.939 122.165 333.72 118.922 332.099C115.765 330.392 111.968 329.539 107.53 329.539C104.373 329.539 100.832 329.966 96.9063 330.819C92.9809 331.587 88.9276 332.611 84.7463 333.891C80.5649 335.171 76.5543 336.536 72.7143 337.987C68.8743 339.352 65.4609 340.632 62.4743 341.827C59.4876 342.936 57.1409 343.832 55.4343 344.515L51.0823 334.019Z" fill="black"/>
<path d="M357.002 386.627C348.042 386.627 340.064 384.707 333.066 380.867C326.154 376.942 320.693 371.352 316.682 364.099C312.757 356.846 310.794 348.227 310.794 338.243C310.794 328.259 312.757 319.64 316.682 312.387C320.608 305.048 326.112 299.416 333.194 295.491C340.277 291.48 348.426 289.475 357.642 289.475C364.213 289.475 369.973 290.67 374.922 293.059C379.957 295.363 384.053 298.051 387.21 301.123L380.426 308.803C377.61 306.158 374.282 304.024 370.442 302.403C366.602 300.696 362.378 299.843 357.77 299.843C350.773 299.843 344.629 301.422 339.338 304.579C334.133 307.651 330.08 312.046 327.178 317.763C324.362 323.48 322.954 330.179 322.954 337.859C322.954 345.71 324.362 352.494 327.178 358.211C330.08 363.928 334.133 368.366 339.338 371.523C344.544 374.595 350.602 376.131 357.514 376.131C362.72 376.131 367.413 375.192 371.594 373.315C375.861 371.438 379.744 368.835 383.242 365.507L389.898 373.187C385.546 377.539 380.725 380.867 375.434 383.171C370.229 385.475 364.085 386.627 357.002 386.627Z" fill="black"/>
<path d="M438.137 262V415.091H429.046V262H438.137Z" fill="black"/>
<path d="M14.1818 408V561.091H5.09091V408H14.1818Z" fill="black"/>
<path d="M440.057 408V561.091H430.966V408H440.057Z" fill="black"/>
<path d="M14.1818 554V707.091H5.09091V554H14.1818Z" fill="black"/>
<path d="M440.057 554V707.091H430.966V554H440.057Z" fill="black"/>
<path d="M14.1818 700V853.091H5.09091V700H14.1818Z" fill="black"/>
<path d="M440.057 700V853.091H430.966V700H440.057Z" fill="black"/>
<path d="M14.1818 846V999.091H5.09091V846H14.1818Z" fill="black"/>
<path d="M440.057 846V999.091H430.966V846H440.057Z" fill="black"/>
<path d="M14.1818 992V1145.09H5.09091V992H14.1818Z" fill="black"/>
<path d="M440.057 992V1145.09H430.966V992H440.057Z" fill="black"/>
<path d="M14.1818 1138V1291.09H5.09091V1138H14.1818Z" fill="black"/>
<path d="M440.057 1138V1291.09H430.966V1138H440.057Z" fill="black"/>
<path d="M14.1818 1284V1437.09H5.09091V1284H14.1818Z" fill="black"/>
<path d="M440.057 1284V1437.09H430.966V1284H440.057Z" fill="black"/>
<path d="M14.1818 1430V1583.09H5.09091V1430H14.1818Z" fill="black"/>
<path d="M440.057 1430V1583.09H430.966V1430H440.057Z" fill="black"/>
<path d="M14.1818 1576V1729.09H5.09091V1576H14.1818Z" fill="black"/>
<path d="M440.057 1576V1729.09H430.966V1576H440.057Z" fill="black"/>
<path d="M14.1818 1722V1875.09H5.09091V1722H14.1818Z" fill="black"/>
<path d="M440.057 1722V1875.09H430.966V1722H440.057Z" fill="black"/>
<path d="M14.1818 1868V2021.09H5.09091V1868H14.1818Z" fill="black"/>
<path d="M440.057 1868V2021.09H430.966V1868H440.057Z" fill="black"/>
<path d="M61.0909 2044H72.3636V2105.64C72.3636 2112 70.8636 2117.68 67.8636 2122.68C64.8939 2127.65 60.697 2131.58 55.2727 2134.45C49.8485 2137.3 43.4848 2138.73 36.1818 2138.73C28.8788 2138.73 22.5152 2137.3 17.0909 2134.45C11.6667 2131.58 7.45455 2127.65 4.45455 2122.68C1.48485 2117.68 0 2112 0 2105.64V2044H11.2727V2104.73C11.2727 2109.27 12.2727 2113.32 14.2727 2116.86C16.2727 2120.38 19.1212 2123.15 22.8182 2125.18C26.5455 2127.18 31 2128.18 36.1818 2128.18C41.3636 2128.18 45.8182 2127.18 49.5455 2125.18C53.2727 2123.15 56.1212 2120.38 58.0909 2116.86C60.0909 2113.32 61.0909 2109.27 61.0909 2104.73V2044Z" fill="black"/>
<path d="M211.602 2024.45V2029.7H83.6023V2024.45H211.602Z" fill="black"/>
<path d="M339.602 2024.45V2029.7H211.602V2024.45H339.602Z" fill="black"/>
<path d="M411.966 2044H423.239V2105.64C423.239 2112 421.739 2117.68 418.739 2122.68C415.769 2127.65 411.572 2131.58 406.148 2134.45C400.723 2137.3 394.36 2138.73 387.057 2138.73C379.754 2138.73 373.39 2137.3 367.966 2134.45C362.542 2131.58 358.33 2127.65 355.33 2122.68C352.36 2117.68 350.875 2112 350.875 2105.64V2044H362.148V2104.73C362.148 2109.27 363.148 2113.32 365.148 2116.86C367.148 2120.38 369.996 2123.15 373.693 2125.18C377.42 2127.18 381.875 2128.18 387.057 2128.18C392.239 2128.18 396.693 2127.18 400.42 2125.18C404.148 2123.15 406.996 2120.38 408.966 2116.86C410.966 2113.32 411.966 2109.27 411.966 2104.73V2044Z" fill="black"/>
</svg>
