<svg width="626" height="626" viewBox="0 0 626 626" fill="none" xmlns="http://www.w3.org/2000/svg">
<path fill-rule="evenodd" clip-rule="evenodd" d="M0 53.439V106.878H53.439H106.878V53.439V0H53.439H0V53.439ZM137.415 7.63415V15.2683H129.78H122.146V22.9024V30.5366H129.78H137.415V38.1707V45.8049H129.78H122.146V53.439V61.0732H152.683H183.22V53.439V45.8049H198.488H213.756V38.1707V30.5366H206.122H198.488V22.9024V15.2683H190.854H183.22V22.9024V30.5366H175.585H167.951V22.9024V15.2683H160.317H152.683V7.63415V0H145.049H137.415V7.63415ZM229.024 30.5366V61.0732H213.756H198.488V76.3415V91.6098H190.854H183.22V83.9756V76.3415H175.585H167.951V83.9756V91.6098H160.317H152.683V83.9756V76.3415H137.415H122.146V91.6098V106.878H129.78H137.415V99.2439V91.6098H145.049H152.683V99.2439V106.878H160.317H167.951V99.2439V91.6098H175.585H183.22V99.2439V106.878H190.854H198.488V114.512V122.146H190.854H183.22V129.78V137.415H167.951H152.683V145.049V152.683H145.049H137.415V160.317V167.951H129.78H122.146V183.22V198.488H114.512H106.878V190.854V183.22H99.2439H91.6098V190.854V198.488H99.2439H106.878V206.122V213.756H99.2439H91.6098V221.39V229.024H99.2439H106.878V236.659V244.293H99.2439H91.6098V251.927V259.561H83.9756H76.3415V267.195V274.829H68.7073H61.0732V282.463V290.098H68.7073H76.3415V297.732V305.366H61.0732H45.8049V282.463V259.561H53.439H61.0732V244.293V229.024H53.439H45.8049V244.293V259.561H30.5366H15.2683V267.195V274.829H7.63415H0V282.463V290.098H7.63415H15.2683V282.463V274.829H22.9024H30.5366V290.098V305.366H38.1707H45.8049V320.634V335.902H30.5366H15.2683V343.537V351.171H7.63415H0V366.439V381.707H7.63415H15.2683V389.341V396.976H7.63415H0V404.61V412.244H7.63415H15.2683V404.61V396.976H30.5366H45.8049V404.61V412.244H53.439H61.0732V389.341V366.439H68.7073H76.3415V374.073V381.707H91.6098H106.878V389.341V396.976H99.2439H91.6098V404.61V412.244H99.2439H106.878V419.878V427.512H99.2439H91.6098V435.146V442.78H106.878H122.146V458.049V473.317H129.78H137.415V480.951V488.585H145.049H152.683V496.22V503.854H167.951H183.22V511.488V519.122H190.854H198.488V526.756V534.39H221.39H244.293V542.024V549.659H236.659H229.024V557.293V564.927H236.659H244.293V572.561V580.195H251.927H259.561V572.561V564.927H251.927H244.293V557.293V549.659H282.463H320.634V572.561V595.463H305.366H290.098V587.829V580.195H282.463H274.829V587.829V595.463H267.195H259.561V610.732V626H274.829H290.098V618.366V610.732H305.366H320.634V618.366V626H335.902H351.171V618.366V610.732H358.805H366.439V603.098V595.463H374.073H381.707V603.098V610.732H389.341H396.976V618.366V626H404.61H412.244V618.366V610.732H419.878H427.512V618.366V626H435.146H442.78V618.366V610.732H435.146H427.512V603.098V595.463H404.61H381.707V587.829V580.195H389.341H396.976V564.927V549.659H389.341H381.707V564.927V580.195H374.073H366.439V587.829V595.463H358.805H351.171V587.829V580.195H343.537H335.902V564.927V549.659H343.537H351.171V557.293V564.927H358.805H366.439V549.659V534.39H396.976H427.512V542.024V549.659H435.146H442.78V526.756V503.854H450.415H458.049V511.488V519.122H465.683H473.317V534.39V549.659H480.951H488.585V557.293V564.927H480.951H473.317V580.195V595.463H480.951H488.585V587.829V580.195H496.22H503.854V572.561V564.927H534.39H564.927V526.756V488.585H549.659H534.39V473.317V458.049H526.756H519.122V473.317V488.585H503.854H488.585V503.854V519.122H480.951H473.317V511.488V503.854H465.683H458.049V496.22V488.585H465.683H473.317V480.951V473.317H480.951H488.585V458.049V442.78H496.22H503.854V435.146V427.512H511.488H519.122V412.244V396.976H526.756H534.39V412.244V427.512H542.024H549.659V412.244V396.976H557.293H564.927V404.61V412.244H580.195H595.463V404.61V396.976H580.195H564.927V389.341V381.707H557.293H549.659V374.073V366.439H557.293H564.927V358.805V351.171H557.293H549.659V358.805V366.439H542.024H534.39V374.073V381.707H526.756H519.122V374.073V366.439H511.488H503.854V351.171V335.902H519.122H534.39V328.268V320.634H557.293H580.195V328.268V335.902H587.829H595.463V328.268V320.634H603.098H610.732V328.268V335.902H618.366H626V328.268V320.634H618.366H610.732V313V305.366H595.463H580.195V297.732V290.098H572.561H564.927V274.829V259.561H557.293H549.659V274.829V290.098H542.024H534.39V274.829V259.561H519.122H503.854V229.024V198.488H488.585H473.317V175.585V152.683H526.756H580.195V137.415V122.146H572.561H564.927V129.78V137.415H557.293H549.659V129.78V122.146H542.024H534.39V129.78V137.415H526.756H519.122V129.78V122.146H511.488H503.854V129.78V137.415H480.951H458.049V129.78V122.146H435.146H412.244V99.2439V76.3415H396.976H381.707V83.9756V91.6098H374.073H366.439V83.9756V76.3415H351.171H335.902V68.7073V61.0732H328.268H320.634V53.439V45.8049H313H305.366V38.1707V30.5366H313H320.634V22.9024V15.2683H305.366H290.098V7.63415V0H282.463H274.829V15.2683V30.5366H267.195H259.561V15.2683V0H244.293H229.024V30.5366ZM366.439 7.63415V15.2683H358.805H351.171V38.1707V61.0732H366.439H381.707V53.439V45.8049H374.073H366.439V30.5366V15.2683H374.073H381.707V22.9024V30.5366H389.341H396.976V15.2683V0H381.707H366.439V7.63415ZM412.244 7.63415V15.2683H419.878H427.512V22.9024V30.5366H419.878H412.244V38.1707V45.8049H404.61H396.976V53.439V61.0732H404.61H412.244V53.439V45.8049H427.512H442.78V30.5366V15.2683H450.415H458.049V22.9024V30.5366H465.683H473.317V22.9024V15.2683H480.951H488.585V22.9024V30.5366H496.22H503.854V15.2683V0H488.585H473.317V7.63415V15.2683H465.683H458.049V7.63415V0H435.146H412.244V7.63415ZM519.122 53.439V106.878H572.561H626V53.439V0H572.561H519.122V53.439ZM15.2683 53.439V91.6098H53.439H91.6098V53.439V15.2683H53.439H15.2683V53.439ZM534.39 53.439V91.6098H572.561H610.732V53.439V15.2683H572.561H534.39V53.439ZM30.5366 53.439V76.3415H53.439H76.3415V53.439V30.5366H53.439H30.5366V53.439ZM152.683 38.1707V45.8049H160.317H167.951V38.1707V30.5366H160.317H152.683V38.1707ZM274.829 53.439V76.3415H290.098H305.366V83.9756V91.6098H297.732H290.098V99.2439V106.878H297.732H305.366V99.2439V91.6098H313H320.634V99.2439V106.878H328.268H335.902V99.2439V91.6098H328.268H320.634V76.3415V61.0732H305.366H290.098V45.8049V30.5366H282.463H274.829V53.439ZM549.659 53.439V76.3415H572.561H595.463V53.439V30.5366H572.561H549.659V53.439ZM244.293 53.439V61.0732H236.659H229.024V68.7073V76.3415H221.39H213.756V83.9756V91.6098H206.122H198.488V99.2439V106.878H206.122H213.756V99.2439V91.6098H221.39H229.024V99.2439V106.878H236.659H244.293V91.6098V76.3415H251.927H259.561V61.0732V45.8049H251.927H244.293V53.439ZM458.049 61.0732V76.3415H442.78H427.512V91.6098V106.878H435.146H442.78V99.2439V91.6098H450.415H458.049V99.2439V106.878H465.683H473.317V83.9756V61.0732H480.951H488.585V53.439V45.8049H473.317H458.049V61.0732ZM259.561 99.2439V106.878H267.195H274.829V99.2439V91.6098H267.195H259.561V99.2439ZM351.171 99.2439V106.878H358.805H366.439V99.2439V91.6098H358.805H351.171V99.2439ZM381.707 99.2439V106.878H389.341H396.976V99.2439V91.6098H389.341H381.707V99.2439ZM488.585 99.2439V106.878H496.22H503.854V99.2439V91.6098H496.22H488.585V99.2439ZM0 129.78V137.415H15.2683H30.5366V152.683V167.951H22.9024H15.2683V175.585V183.22H7.63415H0V213.756V244.293H7.63415H15.2683V213.756V183.22H22.9024H30.5366V198.488V213.756H45.8049H61.0732V206.122V198.488H53.439H45.8049V183.22V167.951H53.439H61.0732V152.683V137.415H68.7073H76.3415V129.78V122.146H38.1707H0V129.78ZM91.6098 129.78V137.415H114.512H137.415V129.78V122.146H114.512H91.6098V129.78ZM595.463 129.78V137.415H603.098H610.732V129.78V122.146H603.098H595.463V129.78ZM229.024 145.049V152.683H213.756H198.488V160.317V167.951H190.854H183.22V175.585V183.22H175.585H167.951V190.854V198.488H160.317H152.683V206.122V213.756H145.049H137.415V229.024V244.293H129.78H122.146V320.634V396.976H129.78H137.415V412.244V427.512H145.049H152.683V435.146V442.78H160.317H167.951V435.146V427.512H175.585H183.22V419.878V412.244H190.854H198.488V404.61V396.976H206.122H213.756V389.341V381.707H221.39H229.024V374.073V366.439H236.659H244.293V358.805V351.171H251.927H259.561V343.537V335.902H267.195H274.829V328.268V320.634H282.463H290.098V313V305.366H297.732H305.366V297.732V290.098H313H320.634V282.463V274.829H328.268H335.902V267.195V259.561H343.537H351.171V251.927V244.293H358.805H366.439V236.659V229.024H374.073H381.707V221.39V213.756H389.341H396.976V206.122V198.488H404.61H412.244V190.854V183.22H427.512H442.78V175.585V167.951H435.146H427.512V152.683V137.415H419.878H412.244V145.049V152.683H396.976H381.707V145.049V137.415H305.366H229.024V145.049ZM91.6098 160.317V167.951H99.2439H106.878V160.317V152.683H99.2439H91.6098V160.317ZM610.732 160.317V167.951H618.366H626V160.317V152.683H618.366H610.732V160.317ZM488.585 175.585V183.22H496.22H503.854V175.585V167.951H496.22H488.585V175.585ZM534.39 175.585V183.22H542.024H549.659V190.854V198.488H542.024H534.39V206.122V213.756H526.756H519.122V221.39V229.024H526.756H534.39V221.39V213.756H542.024H549.659V206.122V198.488H564.927H580.195V206.122V213.756H587.829H595.463V206.122V198.488H603.098H610.732V206.122V213.756H618.366H626V206.122V198.488H618.366H610.732V190.854V183.22H595.463H580.195V175.585V167.951H572.561H564.927V175.585V183.22H557.293H549.659V175.585V167.951H542.024H534.39V175.585ZM183.22 198.488V213.756H190.854H198.488V198.488V183.22H190.854H183.22V198.488ZM427.512 221.39V229.024H419.878H412.244V236.659V244.293H404.61H396.976V251.927V259.561H389.341H381.707V267.195V274.829H374.073H366.439V282.463V290.098H358.805H351.171V297.732V305.366H343.537H335.902V313V320.634H328.268H320.634V328.268V335.902H313H305.366V343.537V351.171H297.732H290.098V358.805V366.439H282.463H274.829V374.073V381.707H267.195H259.561V389.341V396.976H251.927H244.293V404.61V412.244H236.659H229.024V419.878V427.512H221.39H213.756V435.146V442.78H206.122H198.488V450.415V458.049H190.854H183.22V465.683V473.317H190.854H198.488V480.951V488.585H213.756H229.024V496.22V503.854H305.366H381.707V496.22V488.585H396.976H412.244V480.951V473.317H419.878H427.512V465.683V458.049H442.78H458.049V465.683V473.317H450.415H442.78V480.951V488.585H450.415H458.049V480.951V473.317H465.683H473.317V465.683V458.049H465.683H458.049V442.78V427.512H480.951H503.854V412.244V396.976H488.585H473.317V389.341V381.707H488.585H503.854V374.073V366.439H496.22H488.585V335.902V305.366H496.22H503.854V297.732V290.098H496.22H488.585V282.463V274.829H473.317H458.049V267.195V259.561H473.317H488.585V251.927V244.293H473.317H458.049V236.659V229.024H465.683H473.317V221.39V213.756H450.415H427.512V221.39ZM549.659 236.659V244.293H580.195H610.732V236.659V229.024H580.195H549.659V236.659ZM427.512 251.927V259.561H419.878H412.244V274.829V290.098H427.512H442.78V282.463V274.829H435.146H427.512V267.195V259.561H442.78H458.049V251.927V244.293H442.78H427.512V251.927ZM91.6098 267.195V274.829H99.2439H106.878V267.195V259.561H99.2439H91.6098V267.195ZM595.463 282.463V290.098H603.098H610.732V282.463V274.829H603.098H595.463V282.463ZM91.6098 297.732V305.366H99.2439H106.878V297.732V290.098H99.2439H91.6098V297.732ZM412.244 313V320.634H419.878H427.512V313V305.366H419.878H412.244V313ZM91.6098 328.268V335.902H99.2439H106.878V328.268V320.634H99.2439H91.6098V328.268ZM442.78 335.902V351.171H450.415H458.049V335.902V320.634H450.415H442.78V335.902ZM45.8049 343.537V351.171H38.1707H30.5366V358.805V366.439H22.9024H15.2683V374.073V381.707H30.5366H45.8049V374.073V366.439H53.439H61.0732V358.805V351.171H68.7073H76.3415V343.537V335.902H61.0732H45.8049V343.537ZM91.6098 358.805V366.439H99.2439H106.878V358.805V351.171H99.2439H91.6098V358.805ZM595.463 358.805V366.439H587.829H580.195V374.073V381.707H603.098H626V374.073V366.439H618.366H610.732V358.805V351.171H603.098H595.463V358.805ZM442.78 374.073V381.707H450.415H458.049V374.073V366.439H450.415H442.78V374.073ZM412.244 404.61V412.244H419.878H427.512V404.61V396.976H419.878H412.244V404.61ZM610.732 404.61V412.244H618.366H626V404.61V396.976H618.366H610.732V404.61ZM412.244 435.146V442.78H419.878H427.512V435.146V427.512H419.878H412.244V435.146ZM564.927 435.146V442.78H580.195H595.463V450.415V458.049H610.732H626V450.415V442.78H610.732H595.463V435.146V427.512H580.195H564.927V435.146ZM0 473.317V503.854H7.63415H15.2683V473.317V442.78H7.63415H0V473.317ZM30.5366 465.683V473.317H38.1707H45.8049V465.683V458.049H38.1707H30.5366V465.683ZM61.0732 473.317V488.585H68.7073H76.3415V473.317V458.049H68.7073H61.0732V473.317ZM91.6098 465.683V473.317H99.2439H106.878V465.683V458.049H99.2439H91.6098V465.683ZM564.927 465.683V473.317H572.561H580.195V465.683V458.049H572.561H564.927V465.683ZM595.463 480.951V488.585H587.829H580.195V511.488V534.39H595.463H610.732V519.122V503.854H618.366H626V488.585V473.317H610.732H595.463V480.951ZM91.6098 496.22V503.854H99.2439H106.878V496.22V488.585H99.2439H91.6098V496.22ZM122.146 519.122V534.39H129.78H137.415V519.122V503.854H129.78H122.146V519.122ZM412.244 511.488V519.122H419.878H427.512V511.488V503.854H419.878H412.244V511.488ZM503.854 526.756V549.659H526.756H549.659V526.756V503.854H526.756H503.854V526.756ZM0 572.561V626H53.439H106.878V572.561V519.122H53.439H0V572.561ZM519.122 526.756V534.39H526.756H534.39V526.756V519.122H526.756H519.122V526.756ZM15.2683 572.561V610.732H53.439H91.6098V572.561V534.39H53.439H15.2683V572.561ZM30.5366 572.561V595.463H53.439H76.3415V572.561V549.659H53.439H30.5366V572.561ZM122.146 587.829V626H129.78H137.415V618.366V610.732H145.049H152.683V618.366V626H160.317H167.951V618.366V610.732H160.317H152.683V595.463V580.195H160.317H167.951V572.561V564.927H160.317H152.683V572.561V580.195H145.049H137.415V564.927V549.659H129.78H122.146V587.829ZM183.22 557.293V564.927H190.854H198.488V580.195V595.463H190.854H183.22V610.732V626H190.854H198.488V610.732V595.463H206.122H213.756V610.732V626H229.024H244.293V618.366V610.732H236.659H229.024V603.098V595.463H221.39H213.756V580.195V564.927H206.122H198.488V557.293V549.659H190.854H183.22V557.293ZM580.195 572.561V595.463H587.829H595.463V603.098V610.732H587.829H580.195V618.366V626H587.829H595.463V618.366V610.732H603.098H610.732V595.463V580.195H603.098H595.463V564.927V549.659H587.829H580.195V572.561ZM610.732 557.293V564.927H618.366H626V557.293V549.659H618.366H610.732V557.293ZM412.244 572.561V580.195H427.512H442.78V572.561V564.927H427.512H412.244V572.561ZM519.122 587.829V595.463H526.756H534.39V610.732V626H542.024H549.659V610.732V595.463H557.293H564.927V587.829V580.195H557.293H549.659V587.829V595.463H542.024H534.39V587.829V580.195H526.756H519.122V587.829ZM274.829 603.098V610.732H282.463H290.098V603.098V595.463H282.463H274.829V603.098ZM320.634 603.098V610.732H328.268H335.902V603.098V595.463H328.268H320.634V603.098ZM488.585 618.366V626H496.22H503.854V618.366V610.732H496.22H488.585V618.366Z" fill="black"/>
</svg>
